<svg width="71" height="59" viewBox="0 0 71 59" fill="none" xmlns="http://www.w3.org/2000/svg">
<path d="M66.0555 25.7246C63.5166 22.5085 59.9301 20.0035 55.9298 18.6829C55.9635 15.94 55.9973 9.16949 55.9973 9.06718C55.9973 7.10386 54.6066 4.36099 47.9255 2.36377C43.6108 1.07833 37.7998 0.367188 31.9556 0.367188C26.1077 0.367188 20.2623 1.11222 15.9814 2.36377C9.30091 4.36161 7.91019 7.10386 7.91019 9.06718L7.94394 14.5523C5.82192 15.2634 4.18743 16.0756 3.00297 16.9901C1.50662 18.1413 0.742188 19.4612 0.742188 20.9513L0.880947 31.8876C0.880947 33.0727 1.82164 34.2231 3.66239 35.4766C3.8049 35.5437 4.01429 35.6799 4.32619 35.8482L4.43057 47.0544V47.19L4.46495 47.2923C5.12499 49.7966 8.0827 51.76 13.1656 53.1483C17.3415 54.2668 22.8719 54.9434 28.3341 54.9434C30.8387 54.9434 33.5188 54.7746 36.2334 54.4363C39.993 57.1773 44.4096 58.6341 49.0049 58.6341C60.7657 58.6341 70.2995 49.4244 70.2995 38.0826C70.3702 33.5804 68.8744 29.3142 66.0555 25.7253V25.7246ZM17.1321 6.12283C21.0986 4.90328 26.4221 4.26056 32.0569 4.26056C37.7291 4.26056 43.0558 4.93718 47.0217 6.1222C50.8125 7.27333 52.1726 8.56066 52.1726 9.13496C52.0651 9.10107 52.0651 9.20338 51.892 9.43938C51.8214 9.50842 51.6857 9.67726 51.6145 9.74379L51.5807 9.77832C51.4757 9.88062 51.3338 10.0156 51.232 10.0827C50.9882 10.2861 50.7444 10.421 50.5007 10.5918C50.3963 10.6583 50.2913 10.6922 50.1894 10.76L50.0819 10.8278C49.7362 11.0311 49.3506 11.2006 48.9368 11.404C48.8999 11.404 48.8637 11.4366 48.8293 11.4366C48.7612 11.4711 48.6937 11.4711 48.6568 11.5056C47.7192 11.8778 46.5685 12.2161 45.2822 12.5551L45.0046 12.6229C44.7953 12.69 44.5859 12.7239 44.3759 12.7911C43.959 12.8934 43.5089 12.9618 43.0214 13.0629L42.2538 13.1978C41.9051 13.2662 41.5594 13.3001 41.2081 13.3673C40.6531 13.4351 40.0974 13.5022 39.4349 13.5706L39.2249 13.6045C36.7203 13.8744 34.3545 14.01 32.0569 14.01C26.3846 14.01 21.098 13.3328 17.1315 12.1484C13.3374 10.9972 11.9811 9.7099 11.9811 9.13559C11.9811 8.56066 13.3381 7.23881 17.1315 6.12283H17.1321ZM19.3929 16.5834C23.1156 17.3291 27.6034 17.7684 31.955 17.7684C34.1114 17.7684 36.304 17.668 38.5304 17.464C39.018 17.4301 39.5393 17.363 40.0974 17.2945C40.1318 17.2945 40.1662 17.2945 40.2706 17.2606C40.3412 17.2606 40.4093 17.2606 40.4768 17.2261C40.7581 17.1922 41.0019 17.1596 41.2794 17.1257H41.3838C41.837 17.0638 42.2893 16.996 42.7407 16.9223L42.9845 16.8878C45.6647 16.4485 49.3168 15.6017 52.0651 14.1468L52.0308 17.7013C51.0507 17.5656 50.0624 17.4977 49.0731 17.4979C46.0135 17.4979 43.0551 18.1413 40.2706 19.3602C37.7291 20.5113 35.5021 22.103 33.5532 24.0657H33.3832C32.9294 24.1003 32.4425 24.1003 31.955 24.1003C26.5265 24.1003 21.3761 23.4895 17.4434 22.3729C13.6525 21.289 12.2242 20.1385 11.9467 19.5623L11.913 14.1123C13.7887 15.1285 16.367 15.9407 19.3929 16.5834ZM4.70809 20.9513C4.70809 20.5119 5.6119 19.5629 8.01457 18.5812L8.04895 20.0374V20.173L8.0827 20.274C8.57023 22.1037 10.2754 23.6596 13.1656 24.9131C10.6579 24.4053 8.53586 23.6942 6.69135 22.7464C4.98873 21.8658 4.74497 21.257 4.70809 20.9858V20.9513ZM6.58697 32.9032C5.02249 32.0571 4.84747 31.6843 4.84747 31.6843C4.84747 29.9243 4.8131 27.6214 4.8131 26.0636C4.84747 26.0636 4.88123 26.0981 4.95186 26.1326L5.02249 26.1665C5.6119 26.4709 6.20382 26.7408 6.83011 26.9787L7.04013 27.0791C7.70267 27.3176 8.43147 27.5549 9.30091 27.8248C9.44279 27.8587 9.54468 27.8919 9.68656 27.9258H9.75407C10.5529 28.1292 11.3548 28.3326 12.293 28.5359C13.1312 28.7041 14.0694 28.8749 15.0069 29.0098L15.5282 29.0763C16.5033 29.2132 17.4096 29.3142 18.3847 29.4153C19.2172 29.4837 20.1579 29.5515 21.2711 29.6199H21.9312C23.0137 29.6525 23.9513 29.687 24.8214 29.687C26.3508 29.687 27.7791 29.6199 29.136 29.5515L29.5523 29.5176H29.7961C28.821 31.5493 28.1985 33.6815 27.9547 35.9159C26.5946 35.9505 25.3764 35.985 24.2295 35.985C19.0103 35.985 14.5907 35.4766 10.7629 34.4265C9.47655 34.0543 7.94394 33.6143 6.6576 32.9377L6.58697 32.9032ZM27.9885 40.9943C21.5518 40.9604 17.0271 39.9449 14.3469 39.1327C14.2419 39.0982 14.1031 39.0655 13.9981 39.0317C14.3469 39.0982 14.6613 39.1321 15.0069 39.2011C17.9646 39.5714 20.9936 39.8099 24.3338 39.8099C25.5183 39.8099 26.6996 39.7754 27.881 39.7083C27.9178 40.1821 27.9547 40.5876 27.9885 40.995V40.9943ZM28.4054 51.1172C22.9769 51.1172 17.7921 50.5084 13.8594 49.3905C10.0653 48.3078 8.64024 47.1567 8.36022 46.5805L8.32647 40.656C10.1735 41.74 12.5736 42.6194 15.392 43.3299C19.2879 44.2789 23.8125 44.7873 28.4054 44.7873H29.031C29.8299 47.0368 31.0068 49.1321 32.5107 50.9823C31.1443 51.0767 29.775 51.1217 28.4054 51.1172ZM52.7627 37.0319L47.121 31.3667C46.8119 31.0474 46.6403 30.6187 46.6434 30.1734C46.6466 29.7281 46.8241 29.3019 47.1377 28.987C47.4513 28.6721 47.8757 28.4938 48.3192 28.4907C48.7626 28.4875 49.1895 28.6598 49.5075 28.9703L59.0981 38.6011L49.5081 48.2319C49.1901 48.5423 48.7633 48.7146 48.3198 48.7115C47.8763 48.7084 47.4519 48.5301 47.1383 48.2152C46.8247 47.9003 46.6472 47.4741 46.6441 47.0288C46.6409 46.5834 46.8125 46.1548 47.1217 45.8355L52.5133 40.4213H40.9387C40.4912 40.4213 40.0619 40.2427 39.7454 39.9249C39.4289 39.6071 39.2511 39.1761 39.2511 38.7266C39.2511 38.2771 39.4289 37.8461 39.7454 37.5283C40.0619 37.2105 40.4912 37.0319 40.9387 37.0319H52.7627Z" fill="#FF7545"/>
</svg>
