<svg width="18" height="17" viewBox="0 0 18 17" fill="none" xmlns="http://www.w3.org/2000/svg">
<path d="M1.35849 7.82952H16.3019C16.4717 7.82952 16.6415 7.82952 16.8113 7.65649C17.1509 7.48346 17.3208 7.31043 17.4906 6.96438C17.6604 6.61832 17.6604 6.27227 17.4906 5.92621C17.4906 5.75318 17.3208 5.58015 17.1509 5.40713L12.2264 0.389313C11.717 -0.129771 10.8679 -0.129771 10.3585 0.389313C9.84906 0.908397 9.84906 1.77354 10.3585 2.29262L13.0755 5.06107H1.35849C0.679246 5.06107 0 5.75318 0 6.44529C0 7.13741 0.679246 7.82952 1.35849 7.82952ZM16.6415 9.21374H1.69811C1.5283 9.21374 1.35849 9.21374 1.18868 9.38677C0.849057 9.5598 0.679245 9.73283 0.509434 10.0789C0.339623 10.4249 0.339623 10.771 0.509434 11.117C0.509434 11.2901 0.679245 11.4631 0.849056 11.6361L5.77359 16.6539C6.11321 17 6.45283 17 6.79245 17C7.13208 17 7.4717 16.827 7.81132 16.6539C8.32076 16.1349 8.32076 15.2697 7.81132 14.7506L4.92453 11.9822H16.6415C17.3208 11.9822 18 11.2901 18 10.598C18 9.90585 17.3208 9.21374 16.6415 9.21374Z" fill="#FF7545"/>
</svg>
