<svg width="28" height="26" viewBox="0 0 28 26" fill="none" xmlns="http://www.w3.org/2000/svg">
<path d="M2.85938 12H24.8594C25.1094 12 25.3594 12 25.6094 11.75C26.1094 11.5 26.3594 11.25 26.6094 10.75C26.8594 10.25 26.8594 9.75 26.6094 9.25C26.6094 9 26.3594 8.75 26.1094 8.5L18.8594 1.25C18.1094 0.5 16.8594 0.5 16.1094 1.25C15.3594 2 15.3594 3.25 16.1094 4L20.1094 8H2.85938C1.85938 8 0.859375 9 0.859375 10C0.859375 11 1.85938 12 2.85938 12ZM25.3594 14H3.35937C3.10937 14 2.85938 14 2.60938 14.25C2.10938 14.5 1.85938 14.75 1.60938 15.25C1.35938 15.75 1.35938 16.25 1.60938 16.75C1.60938 17 1.85937 17.25 2.10937 17.5L9.35938 24.75C9.85938 25.25 10.3594 25.25 10.8594 25.25C11.3594 25.25 11.8594 25 12.3594 24.75C13.1094 24 13.1094 22.75 12.3594 22L8.10938 18H25.3594C26.3594 18 27.3594 17 27.3594 16C27.3594 15 26.3594 14 25.3594 14Z" fill="black"/>
</svg>
