<svg width="71" height="70" viewBox="0 0 71 70" fill="none" xmlns="http://www.w3.org/2000/svg">
<path d="M58.012 7.70801C58.012 6.20205 56.7911 4.98047 55.2845 4.98047H53.207C52.1659 4.98047 51.1672 5.55195 50.7646 6.5124C50.1356 8.01289 48.657 9.06699 46.9282 9.06699C45.1994 9.06699 43.7201 8.01289 43.0919 6.5124C42.6893 5.55195 41.6905 4.98115 40.6494 4.98115H39.2699C38.2288 4.98115 37.2301 5.55264 36.8274 6.5124C36.1985 8.01289 34.7199 9.06699 32.9911 9.06699C31.2623 9.06699 29.783 8.01289 29.1548 6.5124C28.7528 5.55264 27.7534 4.98115 26.7123 4.98115H25.3882C24.3471 4.98115 23.3483 5.55264 22.9457 6.5124C22.3168 8.01289 20.8382 9.06699 19.1094 9.06699C17.3806 9.06699 15.9013 8.01289 15.273 6.5124C14.8711 5.55195 13.8717 4.98047 12.8306 4.98047H10.7354C9.22939 4.98047 8.00781 6.20137 8.00781 7.70801V19.9614H58.0106V7.70801H58.012ZM35.5888 50.6808C36.3428 44.1757 41.4807 38.7664 47.9399 37.6884C50.809 37.2092 53.5468 37.5619 55.9763 38.5278C56.9565 38.9175 58.0127 38.2175 58.0127 37.1627V22.4716H8.0126V62.4714C8.0126 63.8461 9.13779 64.9713 10.5125 64.9713H38.2288C39.5386 64.9713 40.1743 63.4346 39.3 62.4584C36.5636 59.4007 35.0631 55.2144 35.5888 50.6808ZM30.5438 35.9678C30.5438 36.8011 29.8685 37.4758 29.0358 37.4758H17.0524C16.2191 37.4758 15.5444 36.8004 15.5444 35.9678V33.984C15.5444 33.1507 16.2198 32.476 17.0524 32.476H29.0358C29.8691 32.476 30.5438 33.1514 30.5438 33.984V35.9678Z" fill="#FF7545"/>
<path d="M50.5549 39.9727C43.6513 39.9727 38.0547 45.5692 38.0547 52.4729C38.0547 59.3765 43.6513 64.973 50.5549 64.973C57.4585 64.973 63.0551 59.3765 63.0551 52.4729C63.0551 45.5692 57.4585 39.9727 50.5549 39.9727ZM56.3723 51.1255L50.6533 57.7044C50.2876 58.1255 49.6478 58.1651 49.2328 57.7933L44.9891 53.9911C44.5782 53.6227 44.5434 52.991 44.9118 52.5802L46.0808 51.2752C46.4492 50.8644 47.0802 50.8295 47.4917 51.198L49.6566 53.1373L53.5429 48.6646C53.9052 48.2482 54.5361 48.2038 54.9524 48.5661L56.2738 49.7159C56.6908 50.0782 56.7346 50.7092 56.3723 51.1255Z" fill="#FF7545"/>
</svg>
