<svg width="20" height="20" viewBox="0 0 20 20" fill="none" xmlns="http://www.w3.org/2000/svg">
<g clip-path="url(#clip0_647_1113)">
<path fill-rule="evenodd" clip-rule="evenodd" d="M19.9821 10.7157V10.7207C19.9821 10.7374 19.9742 10.7557 19.9725 10.7724C19.9725 10.8058 19.9669 10.8376 19.9652 10.871C19.9635 10.8843 19.9607 10.8994 19.959 10.9127C19.9574 10.9428 19.9535 10.9712 19.9501 10.9996C19.9351 11.1582 19.9148 11.3169 19.8913 11.4722C19.8847 11.5207 19.877 11.5691 19.8687 11.6159C19.867 11.6309 19.8657 11.6459 19.8623 11.661C19.8556 11.701 19.8491 11.7395 19.8408 11.7779C19.8274 11.858 19.8124 11.9399 19.7957 12.02C19.7957 12.0217 19.7958 12.0234 19.7941 12.0251C19.7774 12.1069 19.759 12.1871 19.7407 12.2689C19.7373 12.2839 19.734 12.299 19.729 12.314C19.6087 12.8234 19.4483 13.3161 19.2511 13.7937C19.2477 13.8021 19.2444 13.8088 19.2411 13.8171C19.206 13.9056 19.1675 13.9925 19.1274 14.0793C18.9236 14.5386 18.683 14.9795 18.4123 15.3988C18.0597 15.9466 17.6537 16.4576 17.2042 16.9253C16.6126 17.5399 15.9443 18.0793 15.2141 18.5286C14.0811 19.2234 12.7995 19.701 11.431 19.8981C11.416 19.8998 11.4009 19.9031 11.3859 19.9048C11.2773 19.9198 11.1687 19.9332 11.0601 19.9432C10.9448 19.9566 10.8278 19.9666 10.7108 19.975C10.6056 19.9816 10.5003 19.9883 10.395 19.9917C10.375 19.9933 10.3533 19.9933 10.3315 19.9933C10.2212 19.9983 10.111 20 10.0007 20C8.09243 20 6.30619 19.4606 4.7873 18.5286C4.05541 18.0793 3.38702 17.5399 2.79719 16.9253C2.34602 16.4576 1.94165 15.9466 1.58741 15.3988C1.30168 14.9562 1.05104 14.4902 0.837161 14.0042C0.810414 13.9424 0.783692 13.8789 0.758613 13.8171C0.755275 13.8088 0.751938 13.8021 0.748601 13.7937C0.551433 13.3161 0.390999 12.8234 0.270711 12.314C0.26568 12.299 0.262343 12.2839 0.259006 12.2689C0.198862 12.0084 0.148729 11.7461 0.108608 11.4789C0.093591 11.3687 0.0802176 11.2601 0.0685121 11.1516C0.0534699 11.0096 0.0401215 10.8693 0.0300848 10.739C0.0267477 10.714 0.0250789 10.6889 0.0234105 10.6639C0.0234105 10.6572 0.0217418 10.6505 0.0217418 10.6438C0.00669961 10.4334 0 10.2196 0 10.0058C0 9.82045 0.00503086 9.63508 0.0167109 9.45135C0.0350902 9.07891 0.0768801 8.71314 0.138693 8.35407C0.254 7.65427 0.444469 6.97954 0.698469 6.33654C0.706812 6.31648 0.71518 6.29811 0.721854 6.27807C0.746933 6.21629 0.770318 6.1144 0.793703 6.05593C1.49551 4.40915 2.62674 2.95642 4.04873 1.8789H4.0504C4.05207 1.8789 4.05207 1.91733 4.05374 1.91733C4.34783 1.75197 4.65361 1.52819 4.97109 1.34279C4.97612 1.33946 4.98113 1.34613 4.98613 1.34279C6.4616 0.482663 8.17599 0 10.0007 0C10.1728 0 10.3449 0.0108656 10.5153 0.0192043C10.6858 0.0275684 10.8529 0.0438414 11.02 0.0605441C11.1887 0.0772469 11.3558 0.101252 11.5229 0.126294C11.6867 0.153029 11.8504 0.181734 12.0109 0.21514C15.9108 1.0168 18.9938 4.0984 19.7958 7.99649C19.8292 8.15684 19.8576 8.32059 19.8844 8.48428C19.9094 8.65128 19.9312 8.81833 19.9479 8.98703C19.9646 9.15403 19.978 9.32106 19.9863 9.49142C19.9947 9.66179 19.9997 9.83382 19.9997 10.0058C19.9997 10.1328 19.998 10.2597 19.9913 10.385C19.9897 10.4718 19.9846 10.5587 19.978 10.6438C19.978 10.6438 19.9809 10.6522 19.9809 10.6639C19.9809 10.6806 19.9821 10.699 19.9821 10.7157Z" fill="#3C3CA3"/>
<path fill-rule="evenodd" clip-rule="evenodd" d="M19.9999 10.0054C19.9999 10.1323 20.002 10.2593 19.9953 10.3846C19.992 10.4964 19.9824 10.6067 19.9824 10.7152V10.7202C19.9824 10.7703 19.9702 10.8204 19.9669 10.8705C19.9652 10.8839 19.9617 10.899 19.96 10.9123C19.9583 10.9424 19.954 10.9708 19.9507 10.9991C19.9493 11.0147 19.9461 11.0298 19.9445 11.0453C19.9312 11.1779 19.9146 11.3096 19.8954 11.4406C19.8939 11.4508 19.893 11.4615 19.8914 11.4718C19.8847 11.5202 19.878 11.5687 19.8696 11.6154C19.868 11.6305 19.8663 11.6455 19.8629 11.6605C19.8562 11.7006 19.8495 11.739 19.8412 11.7774C19.8278 11.8576 19.8128 11.9395 19.7961 12.0196C19.7961 12.0213 19.7961 12.0229 19.7944 12.0246C19.7777 12.1065 19.7593 12.1866 19.7409 12.2685C19.7376 12.2834 19.7342 12.2984 19.7293 12.3134C18.8747 15.9309 16.0522 18.7879 12.4527 19.6948C12.4417 19.6976 12.4307 19.7002 12.4197 19.7029C12.2782 19.7381 12.1356 19.7701 11.9918 19.7992C11.9639 19.8048 11.9361 19.8108 11.9081 19.8162C11.7503 19.8467 11.5916 19.8747 11.4312 19.8977C11.4162 19.8994 11.4012 19.9027 11.3861 19.9044C11.2775 19.9194 11.1689 19.9328 11.0603 19.9428C10.945 19.9562 10.828 19.9662 10.7111 19.9745C10.6058 19.9812 10.5005 19.9879 10.3952 19.9912C10.3752 19.9929 10.3535 19.9929 10.3318 19.9929C10.2215 19.9979 10.1112 19.9996 10.0009 19.9996C8.09266 19.9996 6.30642 19.4601 4.78753 18.5282C4.05564 18.0789 3.38725 17.5395 2.79742 16.9248C2.34625 16.4572 1.94188 15.9461 1.58764 15.3983C1.30191 14.9557 1.05127 14.4897 0.837392 14.0037C0.810645 13.9419 0.783923 13.8785 0.758843 13.8167C0.755506 13.8083 0.752169 13.8016 0.748832 13.7933C0.551664 13.3156 0.39123 12.823 0.270942 12.3136C0.265911 12.2985 0.262574 12.2835 0.259237 12.2685C0.199093 12.0079 0.14896 11.7457 0.108839 11.4785C0.0938219 11.3682 0.0804484 11.2597 0.068743 11.1511C0.0537008 11.0092 0.0403523 10.8689 0.0303156 10.7386C0.0269785 10.7136 0.0253098 10.7059 0.0236414 10.6808C0.0236414 10.6741 0.0219727 10.6782 0.0219727 10.6782H10.5161L10.5156 0.0419922C10.5156 0.0419922 10.8531 0.0550059 11.0202 0.0717086C11.189 0.0884113 11.3561 0.105796 11.5231 0.130838C11.6869 0.155879 11.849 0.182109 12.0111 0.217182C15.9194 1.01384 18.999 4.09084 19.7961 7.99732C19.8312 8.15932 19.8595 8.32078 19.8846 8.48448C19.9097 8.65148 19.9314 8.81823 19.9481 8.9869C19.9648 9.1539 19.9782 9.32247 19.9865 9.49114C19.9949 9.66151 19.9999 9.83338 19.9999 10.0054Z" fill="#F02449"/>
<path fill-rule="evenodd" clip-rule="evenodd" d="M14.8634 1.27246C15.649 1.71047 16.3694 2.25136 17.0063 2.87679H10.5088V1.27246H14.8634Z" fill="#FCFCFC"/>
<path fill-rule="evenodd" clip-rule="evenodd" d="M18.2806 4.40332C18.6225 4.90713 18.9192 5.44412 19.1657 6.00777H10.5088V4.40332H18.2806Z" fill="#FCFCFC"/>
<path fill-rule="evenodd" clip-rule="evenodd" d="M19.6903 7.5332C19.8228 8.05276 19.9138 8.58894 19.9612 9.13763H10.5088V7.5332H19.6903Z" fill="#FCFCFC"/>
<path fill-rule="evenodd" clip-rule="evenodd" d="M19.978 10.6787C19.9763 10.6787 19.973 10.7432 19.9696 10.7799C19.9646 10.8584 19.958 10.9316 19.9496 11.0084C19.9345 11.1671 19.9145 11.3222 19.8911 11.4776C19.8844 11.526 19.8777 11.5718 19.8694 11.6186C19.861 11.6737 19.8527 11.7397 19.841 11.7915C19.8126 11.9568 19.7791 12.1154 19.7424 12.295H0.259033C0.13872 11.7562 0.056834 11.0379 0.0234375 10.6787L19.978 10.6787Z" fill="#FCFCFC"/>
<path fill-rule="evenodd" clip-rule="evenodd" d="M19.2544 13.7314C19.0238 14.2702 18.7447 14.809 18.4189 15.3477H1.58734C1.26152 14.809 0.979125 14.2702 0.748535 13.7314H19.2544Z" fill="#FCFCFC"/>
<path fill-rule="evenodd" clip-rule="evenodd" d="M17.2144 16.9639C16.6229 17.5026 15.9545 18.221 15.2226 18.4006H4.78747C4.05558 18.221 3.3872 17.5026 2.79736 16.9639H17.2144Z" fill="#FCFCFC"/>
<path fill-rule="evenodd" clip-rule="evenodd" d="M4.97116 1.87101L5.0781 2.49563L4.52002 2.20171L3.96191 2.49563L4.05381 1.95786C4.34791 1.79253 4.65368 1.54868 4.97116 1.36328L5.424 1.42842L4.97116 1.87101Z" fill="#FCFCFC"/>
<path fill-rule="evenodd" clip-rule="evenodd" d="M7.62973 0.769531L7.90884 1.33781L8.53293 1.42892L8.08133 1.87128L8.18794 2.49586L7.62973 2.20099L7.07155 2.49586L7.17816 1.87128L6.72656 1.42892L7.35065 1.33781L7.62973 0.769531Z" fill="#FCFCFC"/>
<path fill-rule="evenodd" clip-rule="evenodd" d="M2.99985 3.26953L3.27895 3.83783L3.90302 3.92895L3.45145 4.37128L3.55803 4.99588L2.99985 4.70097L2.44167 4.99588L2.54825 4.37128L2.09668 3.92895L2.72075 3.83783L2.99985 3.26953Z" fill="#FCFCFC"/>
<path fill-rule="evenodd" clip-rule="evenodd" d="M6.04038 3.26953L6.31948 3.83783L6.94357 3.92895L6.49198 4.37128L6.59859 4.99588L6.04038 4.70097L5.48219 4.99588L5.5888 4.37128L5.13721 3.92895L5.7613 3.83783L6.04038 3.26953Z" fill="#FCFCFC"/>
<path fill-rule="evenodd" clip-rule="evenodd" d="M9.08039 3.26953L9.3595 3.83783L9.98359 3.92895L9.53199 4.37128L9.6386 4.99588L9.08039 4.70097L8.52221 4.99588L8.62882 4.37128L8.17725 3.92895L8.80131 3.83783L9.08039 3.26953Z" fill="#FCFCFC"/>
<path fill-rule="evenodd" clip-rule="evenodd" d="M1.8629 6.5928L1.96817 7.21745L1.41008 6.9235L0.851977 7.21745L0.958916 6.5928L0.698242 6.33728C0.729995 6.26044 0.761748 6.18529 0.793477 6.10847L1.13101 6.06003L1.41008 5.49219L1.68911 6.06003L2.31406 6.15022L1.8629 6.5928Z" fill="#FCFCFC"/>
<path fill-rule="evenodd" clip-rule="evenodd" d="M4.51987 5.49121L4.79895 6.05951L5.42304 6.15063L4.97147 6.59299L5.07805 7.21756L4.51987 6.92267L3.96166 7.21756L4.06827 6.59299L3.6167 6.15063L4.24077 6.05951L4.51987 5.49121Z" fill="#FCFCFC"/>
<path fill-rule="evenodd" clip-rule="evenodd" d="M7.62924 5.49121L7.90835 6.05951L8.53244 6.15063L8.08084 6.59299L8.18745 7.21756L7.62924 6.92267L7.07106 7.21756L7.17767 6.59299L6.72607 6.15063L7.35017 6.05951L7.62924 5.49121Z" fill="#FCFCFC"/>
<path fill-rule="evenodd" clip-rule="evenodd" d="M0.410963 9.0927L0.517902 9.71735L0.0166016 9.45177C0.0349809 9.07933 0.0767707 8.71356 0.138583 8.35449L0.238848 8.55993L0.862105 8.65011L0.410963 9.0927Z" fill="#FCFCFC"/>
<path fill-rule="evenodd" clip-rule="evenodd" d="M2.99985 7.99121L3.27895 8.55948L3.90302 8.6506L3.45145 9.09294L3.55803 9.71754L2.99985 9.42265L2.44167 9.71754L2.54825 9.09294L2.09668 8.6506L2.72075 8.55948L2.99985 7.99121Z" fill="#FCFCFC"/>
<path fill-rule="evenodd" clip-rule="evenodd" d="M6.04038 7.99121L6.31948 8.55948L6.94357 8.6506L6.49198 9.09294L6.59859 9.71754L6.04038 9.42265L5.48219 9.71754L5.5888 9.09294L5.13721 8.6506L5.7613 8.55948L6.04038 7.99121Z" fill="#FCFCFC"/>
<path fill-rule="evenodd" clip-rule="evenodd" d="M9.08039 7.99121L9.3595 8.55948L9.98359 8.6506L9.53199 9.09294L9.6386 9.71754L9.08039 9.42265L8.52221 9.71754L8.62882 9.09294L8.17725 8.6506L8.80131 8.55948L9.08039 7.99121Z" fill="#FCFCFC"/>
</g>
<defs>
<clipPath id="clip0_647_1113">
<rect width="20" height="20" fill="white"/>
</clipPath>
</defs>
</svg>
