<svg width="16" height="10" viewBox="0 0 16 10" fill="none" xmlns="http://www.w3.org/2000/svg">
<path d="M0.376444 4.34893L4.48894 0.236433C4.56334 0.161223 4.65192 0.101517 4.74954 0.060767C4.84717 0.0200184 4.95191 -0.000963428 5.05769 -0.000963432C5.16348 -0.000963437 5.26822 0.0200183 5.36585 0.0607669C5.46347 0.101516 5.55205 0.161223 5.62644 0.236433C5.70419 0.306746 5.76633 0.392576 5.80886 0.488386C5.85139 0.584196 5.87337 0.687857 5.87337 0.792682C5.87337 0.897507 5.85139 1.00117 5.80886 1.09698C5.76633 1.19279 5.70419 1.27862 5.62644 1.34893L2.81394 4.19893L14.1639 4.19893C14.2765 4.18477 14.3909 4.19473 14.4993 4.22815C14.6078 4.26157 14.7079 4.31767 14.793 4.39275C14.8781 4.46782 14.9462 4.56014 14.9929 4.66358C15.0396 4.76701 15.0637 4.8792 15.0637 4.99268C15.0637 5.10617 15.0396 5.21835 14.9929 5.32179C14.9462 5.42522 14.8781 5.51754 14.793 5.59262C14.7079 5.66769 14.6078 5.7238 14.4993 5.75721C14.3909 5.79063 14.2765 5.80059 14.1639 5.78643L2.81394 5.78643L5.73894 8.63643C5.83187 8.8155 5.86618 9.01925 5.83702 9.21888C5.80786 9.4185 5.71671 9.60392 5.57644 9.74893C5.50205 9.82414 5.41347 9.88385 5.31585 9.9246C5.21822 9.96535 5.11348 9.98633 5.00769 9.98633C4.90191 9.98633 4.79717 9.96535 4.69954 9.9246C4.60192 9.88385 4.51334 9.82414 4.43894 9.74893L0.376444 5.77393C0.260432 5.69479 0.1655 5.58852 0.0998961 5.46435C0.0342918 5.34018 -2.09135e-07 5.20187 -2.15274e-07 5.06143C-2.21413e-07 4.921 0.0342917 4.78269 0.099896 4.65852C0.1655 4.53435 0.260432 4.42807 0.376444 4.34893Z" fill="#FF7545"/>
</svg>
