<svg width="30" height="30" viewBox="0 0 30 30" fill="none" xmlns="http://www.w3.org/2000/svg">
<path d="M14.5163 4.2339C13.5004 4.2339 12.5261 4.63749 11.8077 5.35587C11.0893 6.07426 10.6857 7.0486 10.6857 8.06455C10.6857 9.0805 11.0893 10.0548 11.8077 10.7732C12.5261 11.4916 13.5004 11.8952 14.5163 11.8952C15.5323 11.8952 16.5066 11.4916 17.225 10.7732C17.9434 10.0548 18.347 9.0805 18.347 8.06455C18.347 7.0486 17.9434 6.07426 17.225 5.35587C16.5066 4.63749 15.5323 4.2339 14.5163 4.2339ZM8.66958 8.06455C8.66958 6.51389 9.28557 5.02674 10.3821 3.93025C11.4785 2.83377 12.9657 2.21777 14.5163 2.21777C16.067 2.21777 17.5542 2.83377 18.6506 3.93025C19.7471 5.02674 20.3631 6.51389 20.3631 8.06455C20.3631 9.61521 19.7471 11.1024 18.6506 12.1988C17.5542 13.2953 16.067 13.9113 14.5163 13.9113C12.9657 13.9113 11.4785 13.2953 10.3821 12.1988C9.28557 11.1024 8.66958 9.61521 8.66958 8.06455ZM10.4841 17.9436C9.04037 17.9436 7.65579 18.5171 6.63492 19.538C5.61406 20.5588 5.04054 21.9434 5.04054 23.3871C5.04054 23.9753 5.2742 24.5394 5.6901 24.9553C6.10601 25.3712 6.6701 25.6049 7.25829 25.6049H12.9034C13.0358 25.6048 13.1669 25.6309 13.2893 25.6816C13.4116 25.7322 13.5227 25.8065 13.6164 25.9001C13.71 25.9937 13.7843 26.1048 13.8349 26.2271C13.8856 26.3494 13.9117 26.4805 13.9117 26.6129C13.9117 26.7453 13.8856 26.8764 13.8349 26.9987C13.7843 27.1211 13.71 27.2322 13.6164 27.3258C13.5227 27.4194 13.4116 27.4937 13.2893 27.5443C13.1669 27.595 13.0358 27.621 12.9034 27.621H7.25829C6.70229 27.621 6.15173 27.5115 5.63805 27.2987C5.12438 27.0859 4.65764 26.7741 4.26449 26.3809C3.87133 25.9878 3.55947 25.521 3.3467 25.0074C3.13393 24.4937 3.02441 23.9431 3.02441 23.3871C3.02441 21.4087 3.81034 19.5113 5.2093 18.1123C6.60826 16.7134 8.50566 15.9275 10.4841 15.9275H14.5163C14.6487 15.9274 14.7798 15.9535 14.9022 16.0041C15.0245 16.0548 15.1356 16.129 15.2293 16.2226C15.3229 16.3163 15.3972 16.4274 15.4478 16.5497C15.4985 16.672 15.5246 16.8031 15.5246 16.9355C15.5246 17.0679 15.4985 17.199 15.4478 17.3213C15.3972 17.4436 15.3229 17.5548 15.2293 17.6484C15.1356 17.742 15.0245 17.8162 14.9022 17.8669C14.7798 17.9175 14.6487 17.9436 14.5163 17.9436H10.4841ZM24.4833 19.0645C24.1276 18.7088 23.7052 18.4266 23.2404 18.2341C22.7757 18.0416 22.2775 17.9425 21.7744 17.9425C21.2713 17.9425 20.7732 18.0416 20.3084 18.2341C19.8436 18.4266 19.4213 18.7088 19.0655 19.0645C18.7098 19.4203 18.4276 19.8426 18.2351 20.3074C18.0426 20.7722 17.9435 21.2703 17.9435 21.7734C17.9435 22.2765 18.0426 22.7747 18.2351 23.2394C18.4276 23.7042 18.7098 24.1266 19.0655 24.4823C19.784 25.2007 20.7584 25.6043 21.7744 25.6043C22.7904 25.6043 23.7648 25.2007 24.4833 24.4823C25.2017 23.7639 25.6053 22.7894 25.6053 21.7734C25.6053 20.7574 25.2017 19.783 24.4833 19.0645ZM17.6397 17.6395C18.1821 17.0939 18.8267 16.6606 19.5368 16.3646C20.2469 16.0685 21.0084 15.9155 21.7777 15.9144C22.547 15.9132 23.309 16.0638 24.02 16.3577C24.731 16.6516 25.377 17.0828 25.921 17.6268C26.465 18.1708 26.8963 18.8168 27.1901 19.5278C27.484 20.2388 27.6347 21.0008 27.6335 21.7701C27.6323 22.5394 27.4793 23.3009 27.1833 24.011C26.8872 24.7211 26.4539 25.3658 25.9083 25.9081C24.808 26.9858 23.3268 27.5858 21.7867 27.5778C20.2465 27.5697 18.7717 26.9543 17.6827 25.8652C16.5937 24.776 15.9784 23.3012 15.9705 21.761C15.9626 20.2208 16.5627 18.7398 17.6405 17.6395H17.6397Z" fill="black"/>
<path d="M17.6391 17.6391C17.7327 17.5455 17.8438 17.4712 17.9662 17.4205C18.0885 17.3698 18.2196 17.3438 18.352 17.3438C18.4844 17.3438 18.6155 17.3698 18.7378 17.4205C18.8602 17.4712 18.9713 17.5455 19.0649 17.6391L25.9085 24.4818C26.0975 24.6709 26.2037 24.9274 26.2037 25.1947C26.2037 25.4621 26.0975 25.7186 25.9085 25.9076C25.7194 26.0967 25.4629 26.2029 25.1956 26.2029C24.9282 26.2029 24.6717 26.0967 24.4826 25.9076L17.6391 19.0649C17.5455 18.9713 17.4712 18.8602 17.4205 18.7378C17.3698 18.6155 17.3438 18.4844 17.3438 18.352C17.3438 18.2196 17.3698 18.0885 17.4205 17.9662C17.4712 17.8438 17.5455 17.7327 17.6391 17.6391Z" fill="black"/>
</svg>
