<svg width="65" height="60" viewBox="0 0 65 60" fill="none" xmlns="http://www.w3.org/2000/svg">
<g clip-path="url(#clip0_630_3591)">
<path d="M21.4063 16.9157C21.974 16.9158 22.5183 17.1416 22.9197 17.5435C23.3211 17.9453 23.5466 18.4903 23.5466 19.0586C23.5466 19.6269 23.3211 20.1718 22.9197 20.5737C22.5183 20.9755 21.974 21.2014 21.4063 21.2015H17.125C16.5574 21.2014 16.013 20.9755 15.6116 20.5737C15.2102 20.1718 14.9848 19.6269 14.9848 19.0586C14.9848 18.4903 15.2102 17.9453 15.6116 17.5435C16.013 17.1416 16.5574 16.9158 17.125 16.9157H21.4063ZM21.4063 25.4872C21.974 25.4872 22.5185 25.7129 22.9199 26.1148C23.3214 26.5167 23.5469 27.0617 23.5469 27.63C23.5469 28.1983 23.3214 28.7434 22.9199 29.1453C22.5185 29.5471 21.974 29.7729 21.4063 29.7729H17.125C16.5573 29.7729 16.0128 29.5471 15.6114 29.1453C15.2099 28.7434 14.9844 28.1983 14.9844 27.63C14.9844 27.0617 15.2099 26.5167 15.6114 26.1148C16.0128 25.7129 16.5573 25.4872 17.125 25.4872H21.4063ZM21.4063 34.0586C21.6874 34.0585 21.9658 34.1139 22.2256 34.2216C22.4853 34.3293 22.7214 34.4871 22.9202 34.6861C23.119 34.8851 23.2767 35.1213 23.3843 35.3813C23.4919 35.6413 23.5473 35.92 23.5473 36.2015C23.5473 36.4829 23.4919 36.7616 23.3843 37.0216C23.2767 37.2816 23.119 37.5178 22.9202 37.7168C22.7214 37.9158 22.4853 38.0736 22.2256 38.1813C21.9658 38.289 21.6874 38.3444 21.4063 38.3443H17.125C16.8439 38.3444 16.5655 38.289 16.3057 38.1813C16.046 38.0736 15.81 37.9158 15.6112 37.7168C15.4123 37.5178 15.2546 37.2816 15.147 37.0216C15.0394 36.7616 14.9841 36.4829 14.9841 36.2015C14.9841 35.92 15.0394 35.6413 15.147 35.3813C15.2546 35.1213 15.4123 34.8851 15.6112 34.6861C15.81 34.4871 16.046 34.3293 16.3057 34.2216C16.5655 34.1139 16.8439 34.0585 17.125 34.0586H21.4063ZM21.4063 42.63C21.6874 42.63 21.9658 42.6854 22.2256 42.793C22.4853 42.9007 22.7214 43.0585 22.9202 43.2575C23.119 43.4565 23.2767 43.6928 23.3843 43.9528C23.4919 44.2128 23.5473 44.4914 23.5473 44.7729C23.5473 45.0543 23.4919 45.333 23.3843 45.593C23.2767 45.853 23.119 46.0892 22.9202 46.2882C22.7214 46.4872 22.4853 46.6451 22.2256 46.7527C21.9658 46.8604 21.6874 46.9158 21.4063 46.9157H17.125C16.8439 46.9158 16.5655 46.8604 16.3057 46.7527C16.046 46.6451 15.81 46.4872 15.6112 46.2882C15.4123 46.0892 15.2546 45.853 15.147 45.593C15.0394 45.333 14.9841 45.0543 14.9841 44.7729C14.9841 44.4914 15.0394 44.2128 15.147 43.9528C15.2546 43.6928 15.4123 43.4565 15.6112 43.2575C15.81 43.0585 16.046 42.9007 16.3057 42.793C16.5655 42.6854 16.8439 42.63 17.125 42.63H21.4063ZM34.2501 16.9157C34.5312 16.9157 34.8096 16.9711 35.0694 17.0787C35.3291 17.1864 35.5651 17.3443 35.764 17.5432C35.9628 17.7422 36.1205 17.9785 36.2281 18.2385C36.3357 18.4985 36.3911 18.7772 36.3911 19.0586C36.3911 19.34 36.3357 19.6187 36.2281 19.8787C36.1205 20.1387 35.9628 20.375 35.764 20.5739C35.5651 20.7729 35.3291 20.9308 35.0694 21.0384C34.8096 21.1461 34.5312 21.2015 34.2501 21.2015H29.9688C29.6877 21.2015 29.4093 21.1461 29.1495 21.0384C28.8898 20.9308 28.6537 20.7729 28.4549 20.5739C28.2561 20.375 28.0984 20.1387 27.9908 19.8787C27.8832 19.6187 27.8278 19.34 27.8278 19.0586C27.8278 18.7772 27.8832 18.4985 27.9908 18.2385C28.0984 17.9785 28.2561 17.7422 28.4549 17.5432C28.6537 17.3443 28.8898 17.1864 29.1495 17.0787C29.4093 16.9711 29.6877 16.9157 29.9688 16.9157H34.2501ZM34.2501 25.4872C34.8178 25.4872 35.3623 25.7129 35.7637 26.1148C36.1652 26.5167 36.3907 27.0617 36.3907 27.63C36.3907 28.1983 36.1652 28.7434 35.7637 29.1453C35.3623 29.5471 34.8178 29.7729 34.2501 29.7729H29.9688C29.4011 29.7729 28.8566 29.5471 28.4552 29.1453C28.0537 28.7434 27.8282 28.1983 27.8282 27.63C27.8282 27.0617 28.0537 26.5167 28.4552 26.1148C28.8566 25.7129 29.4011 25.4872 29.9688 25.4872H34.2501ZM34.2501 34.0586C34.5312 34.0585 34.8096 34.1139 35.0694 34.2216C35.3291 34.3293 35.5651 34.4871 35.764 34.6861C35.9628 34.8851 36.1205 35.1213 36.2281 35.3813C36.3357 35.6413 36.3911 35.92 36.3911 36.2015C36.3911 36.4829 36.3357 36.7616 36.2281 37.0216C36.1205 37.2816 35.9628 37.5178 35.764 37.7168C35.5651 37.9158 35.3291 38.0736 35.0694 38.1813C34.8096 38.289 34.5312 38.3444 34.2501 38.3443H29.9688C29.6877 38.3444 29.4093 38.289 29.1495 38.1813C28.8898 38.0736 28.6537 37.9158 28.4549 37.7168C28.2561 37.5178 28.0984 37.2816 27.9908 37.0216C27.8832 36.7616 27.8278 36.4829 27.8278 36.2015C27.8278 35.92 27.8832 35.6413 27.9908 35.3813C28.0984 35.1213 28.2561 34.8851 28.4549 34.6861C28.6537 34.4871 28.8898 34.3293 29.1495 34.2216C29.4093 34.1139 29.6877 34.0585 29.9688 34.0586H34.2501ZM34.2501 42.63C34.5312 42.63 34.8096 42.6854 35.0694 42.793C35.3291 42.9007 35.5651 43.0585 35.764 43.2575C35.9628 43.4565 36.1205 43.6928 36.2281 43.9528C36.3357 44.2128 36.3911 44.4914 36.3911 44.7729C36.3911 45.0543 36.3357 45.333 36.2281 45.593C36.1205 45.853 35.9628 46.0892 35.764 46.2882C35.5651 46.4872 35.3291 46.6451 35.0694 46.7527C34.8096 46.8604 34.5312 46.9158 34.2501 46.9157H29.9688C29.6877 46.9158 29.4093 46.8604 29.1495 46.7527C28.8898 46.6451 28.6537 46.4872 28.4549 46.2882C28.2561 46.0892 28.0984 45.853 27.9908 45.593C27.8832 45.333 27.8278 45.0543 27.8278 44.7729C27.8278 44.4914 27.8832 44.2128 27.9908 43.9528C28.0984 43.6928 28.2561 43.4565 28.4549 43.2575C28.6537 43.0585 28.8898 42.9007 29.1495 42.793C29.4093 42.6854 29.6877 42.63 29.9688 42.63H34.2501ZM62.0783 55.4872C62.646 55.4872 63.1905 55.7129 63.5919 56.1148C63.9933 56.5167 64.2189 57.0617 64.2189 57.63C64.2189 58.1983 63.9933 58.7434 63.5919 59.1453C63.1905 59.5471 62.646 59.7729 62.0783 59.7729H2.14063C1.5729 59.7729 1.02842 59.5471 0.626976 59.1453C0.22553 58.7434 0 58.1983 0 57.63C0 57.0617 0.22553 56.5167 0.626976 56.1148C1.02842 55.7129 1.5729 55.4872 2.14063 55.4872H6.42189V8.34431C6.42189 7.20767 6.87295 6.11758 7.67584 5.31385C8.47873 4.51012 9.56769 4.05859 10.7031 4.05859H40.672C41.2342 4.05859 41.7909 4.16945 42.3103 4.38482C42.8298 4.6002 43.3017 4.91588 43.6993 5.31385C44.0968 5.71182 44.4122 6.18427 44.6273 6.70424C44.8425 7.2242 44.9532 7.7815 44.9532 8.34431V12.63H53.5157C54.078 12.63 54.6347 12.7409 55.1541 12.9563C55.6735 13.1716 56.1455 13.4873 56.543 13.8853C56.9406 14.2832 57.2559 14.7557 57.4711 15.2757C57.6863 15.7956 57.797 16.3529 57.797 16.9157V55.4872H62.0783ZM10.7031 55.4872H40.672V8.34431H10.7031V55.4872ZM44.9532 55.4872H53.5157V16.9157H44.9532V55.4872Z" fill="#1C1C1C"/>
</g>
<defs>
<clipPath id="clip0_630_3591">
<rect width="64.2105" height="60" fill="white"/>
</clipPath>
</defs>
</svg>
