<svg width="20" height="21" viewBox="0 0 20 21" fill="none" xmlns="http://www.w3.org/2000/svg">
<path d="M13.1842 14.7059C13.3178 14.7077 13.4505 14.683 13.5745 14.6331C13.6985 14.5832 13.8113 14.5092 13.9065 14.4153C14.0016 14.3215 14.0771 14.2096 14.1287 14.0863C14.1802 13.963 14.2068 13.8307 14.2068 13.6971V1.5089C14.2068 1.37526 14.1802 1.24294 14.1287 1.11964C14.0771 0.996345 14.0016 0.884519 13.9065 0.79066C13.8113 0.696802 13.6985 0.622783 13.5745 0.572902C13.4505 0.523021 13.3178 0.498272 13.1842 0.500094H1.00978C0.742231 0.500094 0.485637 0.606378 0.296449 0.795566C0.107261 0.984754 0.000976563 1.24135 0.000976562 1.5089L0.000976563 13.6983C0.000976563 13.9659 0.107261 14.2225 0.296449 14.4117C0.485637 14.6009 0.742231 14.7071 1.00978 14.7071L13.1842 14.7059Z" fill="#7132F5"/>
<path d="M18.9797 6.29432H15.7408V15.1161C15.7408 15.4145 15.6223 15.7006 15.4113 15.9116C15.2003 16.1226 14.9141 16.2411 14.6157 16.2411H5.79395V19.4913C5.79393 19.625 5.82048 19.7573 5.87204 19.8806C5.92359 20.0039 5.99916 20.1157 6.09429 20.2096C6.18943 20.3034 6.30224 20.3774 6.42623 20.4273C6.55021 20.4772 6.6829 20.502 6.81653 20.5001H18.9909C19.1234 20.5001 19.2546 20.474 19.377 20.4233C19.4994 20.3726 19.6106 20.2983 19.7043 20.2046C19.798 20.111 19.8723 19.9997 19.923 19.8773C19.9737 19.755 19.9998 19.6238 19.9998 19.4913V7.30188C19.9998 7.16823 19.9732 7.0359 19.9217 6.9126C19.8701 6.7893 19.7946 6.6775 19.6995 6.58364C19.6043 6.48979 19.4915 6.41577 19.3675 6.36589C19.2435 6.31601 19.1108 6.29124 18.9772 6.29306L18.9797 6.29432Z" fill="#7132F5"/>
</svg>
