<svg width="30" height="30" viewBox="0 0 30 30" fill="none" xmlns="http://www.w3.org/2000/svg">
<path d="M17.1768 22.5703C16.4854 23.7656 14.9531 24.1729 13.7607 23.4785C12.5684 22.7842 12.1582 21.2549 12.8525 20.0625C13.5439 18.8672 23.7949 6.17578 23.7949 6.17578C23.7949 6.17578 17.8711 21.375 17.1768 22.5703ZM24.6475 10.8574C24.2988 11.748 23.9297 12.6826 23.5518 13.6348C24.4746 15.1494 25.0137 16.9189 25.0137 18.8174C25.0137 19.541 24.9258 20.2646 24.7471 21.0352C24.5918 21.709 25.0107 22.3799 25.6816 22.5352C25.7783 22.5586 25.8721 22.5674 25.9658 22.5674C26.5342 22.5674 27.0469 22.1777 27.1816 21.6006C27.4014 20.6572 27.5127 19.7197 27.5127 18.8174C27.5156 15.7939 26.4375 13.0195 24.6475 10.8574ZM15.0146 6.31348C8.12109 6.31348 2.51367 11.9238 2.51367 18.8145C2.51367 19.7168 2.625 20.6543 2.84473 21.5977C3 22.2715 3.67383 22.6875 4.34473 22.5322C5.01855 22.377 5.4375 21.7031 5.2793 21.0322C5.10059 20.2617 5.0127 19.5381 5.0127 18.8145C5.0127 13.3008 9.49805 8.8125 15.0146 8.8125C16.0811 8.8125 17.1094 8.98535 18.0732 9.2959C18.6416 8.58691 19.1982 7.89258 19.7227 7.23926C18.2666 6.64746 16.6816 6.31348 15.0146 6.31348Z" fill="black"/>
</svg>
