<svg width="128" height="129" viewBox="0 0 128 129" fill="none" xmlns="http://www.w3.org/2000/svg">
<path d="M96.9647 97.3316C103.457 90.8436 107.879 82.5759 109.671 73.5745C111.464 64.573 110.546 55.2421 107.035 46.762C103.524 38.2819 97.5771 31.0336 89.946 25.9339C82.315 20.8341 73.3429 18.1121 64.1647 18.1121C54.9865 18.1121 46.0144 20.8341 38.3834 25.9339C30.7523 31.0336 24.8052 38.2819 21.2941 46.762C17.783 55.2421 16.8657 64.573 18.6583 73.5745C20.4509 82.5759 24.8728 90.8436 31.3647 97.3316C40.0656 106.027 51.8634 110.912 64.1647 110.912C76.466 110.912 88.2638 106.027 96.9647 97.3316ZM102.533 102.9C94.9323 110.526 85.2394 115.726 74.6817 117.841C64.1241 119.955 53.1764 118.889 43.2251 114.777C33.2738 110.665 24.7666 103.692 18.7807 94.7422C12.7949 85.7921 9.59961 75.267 9.59961 64.4996C9.59961 53.7323 12.7949 43.2072 18.7807 34.2571C24.7666 25.3069 33.2738 18.3345 43.2251 14.2226C53.1764 10.1107 64.1241 9.04443 74.6817 11.1587C85.2394 13.273 94.9323 18.4728 102.533 26.0996C112.694 36.2962 118.4 50.1045 118.4 64.4996C118.4 78.8948 112.694 92.7031 102.533 102.9Z" fill="#0ECB81"/>
<path d="M86.7867 46.9615C87.1293 46.4901 87.5701 46.0985 88.0786 45.8137C88.5871 45.529 89.1513 45.3579 89.7323 45.3122C90.3133 45.2665 90.8973 45.3473 91.4441 45.5491C91.9908 45.7508 92.4874 46.0687 92.8995 46.4808C93.3116 46.8929 93.6294 47.3894 93.8312 47.9362C94.0329 48.4829 94.1137 49.0669 94.068 49.6479C94.0223 50.2289 93.8512 50.7931 93.5665 51.3016C93.2818 51.8102 92.8902 52.2509 92.4187 52.5935L61.1867 83.8255C60.3203 84.64 59.1759 85.0935 57.9867 85.0935C56.7976 85.0935 55.6531 84.64 54.7867 83.8255L36.9947 66.1615C36.5233 65.8189 36.1317 65.3782 35.847 64.8696C35.5622 64.3611 35.3911 63.7969 35.3454 63.2159C35.2997 62.6349 35.3805 62.0509 35.5823 61.5042C35.784 60.9574 36.1019 60.4608 36.514 60.0487C36.9261 59.6366 37.4226 59.3188 37.9694 59.1171C38.5161 58.9153 39.1001 58.8345 39.6811 58.8802C40.2621 58.9259 40.8263 59.097 41.3349 59.3817C41.8434 59.6665 42.2841 60.0581 42.6267 60.5295L57.6027 75.8255L86.7867 46.9615Z" fill="#0ECB81"/>
</svg>
