<svg width="24" height="24" viewBox="0 0 24 24" fill="none" xmlns="http://www.w3.org/2000/svg">
<path d="M22.9859 11.5332C22.8288 8.42737 21.573 5.80572 19.2532 3.74074C17.4952 2.17627 15.4258 1.27264 13.1019 1.05523C9.83548 0.749488 6.95476 1.71426 4.5399 3.92283C2.71404 5.59239 1.57135 7.71353 1.14306 10.2269C1.0996 10.4819 1.07063 10.7415 1.0421 10.992C1.02897 11.1079 1.01585 11.2243 1.00136 11.3403L1 12.6307L1.00181 12.6547C1.01947 12.7856 1.03531 12.9197 1.05071 13.0492C1.08421 13.3328 1.11907 13.6263 1.1743 13.9144C1.83846 17.3753 3.74264 19.9965 6.83388 21.7055C8.15359 22.4347 9.61953 22.8587 11.191 22.9651C11.2113 22.9665 11.2389 22.9737 11.2684 22.9814C11.2883 22.9864 11.3078 22.9918 11.3277 22.9959L11.3467 23H12.646L12.6578 22.9982C12.7882 22.9805 12.9222 22.9647 13.0517 22.9497C13.3364 22.9162 13.6303 22.8813 13.9191 22.8256C17.3861 22.1589 20.0065 20.2524 21.7074 17.1588C22.6568 15.4317 23.0869 13.5389 22.9855 11.5323L22.9859 11.5332ZM4.49598 15.9232C4.36197 15.9001 4.22797 15.877 4.09396 15.8539C3.67428 15.7819 3.24056 15.7076 2.81952 15.6274C2.80413 15.6224 2.7738 15.5961 2.76746 15.5835C2.38173 14.5942 2.16623 13.6014 2.11055 12.5542H4.97995C5.02613 13.7916 5.19002 14.9539 5.48022 16.0939L4.49643 15.9232H4.49598ZM6.68991 16.2969C6.67769 16.2932 6.6546 16.2774 6.64419 16.2661C6.30554 15.0843 6.11042 13.8383 6.06424 12.5601H11.4445V16.8449C11.3653 16.8422 11.2865 16.8404 11.2091 16.8381C10.9008 16.83 10.6096 16.8227 10.319 16.7869C9.14326 16.6434 7.94986 16.4749 6.79585 16.3118L6.68991 16.2969ZM3.88706 16.9174C4.08943 16.9523 4.29135 16.988 4.49372 17.0238C4.90751 17.0972 5.3358 17.1729 5.75865 17.2399C5.82067 17.2499 5.82474 17.253 5.84466 17.3146C6.29739 18.7074 7.03263 19.9625 8.0309 21.0478C6.02168 20.1822 4.48195 18.7939 3.34695 16.8277C3.53348 16.8581 3.7114 16.887 3.88706 16.9174ZM7.49215 17.5438C8.04222 17.6253 8.61084 17.7091 9.17132 17.7698C9.73226 17.8305 10.3059 17.8695 10.8605 17.9071C11.0538 17.9202 11.248 17.9333 11.4427 17.9478V21.8676C11.4277 21.8645 11.4123 21.8613 11.3974 21.8581C11.2136 21.8192 11.0402 21.7825 10.8736 21.7299C10.175 21.5094 9.54302 21.1044 8.94089 20.4916C8.16898 19.7057 7.54874 18.7178 7.05074 17.4795C7.19833 17.5008 7.34546 17.5225 7.49215 17.5443V17.5438ZM11.4486 6.06888C10.027 6.10059 8.57961 6.25233 7.04032 6.53134C7.0607 6.48559 7.08107 6.43985 7.10099 6.39501C7.23953 6.08383 7.37036 5.78942 7.5175 5.50587C8.14906 4.2879 8.90059 3.39696 9.8142 2.78186C10.3099 2.44804 10.8396 2.23062 11.3888 2.13641C11.4078 2.13324 11.4277 2.13007 11.4486 2.1278V6.06979V6.06888ZM6.07284 11.198C6.08823 10.8842 6.10272 10.5879 6.15026 10.2949C6.23401 9.77715 6.33723 9.25174 6.43684 8.74398C6.49795 8.43236 6.56134 8.11031 6.61929 7.7928C6.63332 7.71534 6.63649 7.69904 6.76054 7.67639C8.53433 7.35344 9.98986 7.18811 11.3413 7.15505C11.3766 7.15414 11.4123 7.15414 11.4486 7.15414V11.4367H6.06016C6.06469 11.3566 6.06831 11.2764 6.07239 11.198H6.07284ZM7.06839 4.16561C6.54142 4.95147 6.13939 5.77266 5.87228 6.60653C5.83425 6.7252 5.80573 6.75102 5.69209 6.76914C5.08725 6.86471 4.4747 6.97251 3.88208 7.07669C3.70325 7.1084 3.52442 7.13965 3.34514 7.1709C4.47153 5.20648 6.01399 3.81186 8.03678 2.93133C7.66871 3.33943 7.34863 3.74708 7.06794 4.16561H7.06839ZM2.77606 8.38842C2.77832 8.38344 2.78557 8.37574 2.791 8.3703C3.68152 8.21177 4.58789 8.05686 5.46437 7.90694L5.47659 7.90467C5.19138 9.02979 5.02387 10.217 4.97859 11.4395H2.111C2.1436 10.7256 2.26131 10.0204 2.47001 9.28978C2.55513 8.99084 2.66605 8.69008 2.77289 8.39929L2.77697 8.38797L2.77606 8.38842ZM12.5532 6.06934V2.12916C12.8543 2.1654 13.1594 2.25508 13.4994 2.40591C14.4298 2.819 15.2026 3.50748 15.931 4.57235C16.3231 5.14488 16.659 5.78715 16.9538 6.52772C15.3946 6.2487 13.9499 6.09787 12.5532 6.06843V6.06934ZM17.9398 12.5542C17.9353 12.6357 17.9312 12.7172 17.9271 12.7969C17.9113 13.1158 17.8963 13.417 17.8484 13.7146C17.7655 14.2328 17.6627 14.7582 17.5631 15.2664C17.5047 15.564 17.4445 15.872 17.3888 16.1759C17.3703 16.2769 17.3544 16.3005 17.2263 16.3236C15.414 16.6479 14.0142 16.8069 12.6868 16.8399C12.646 16.8408 12.6044 16.8408 12.5609 16.8408V12.5542H17.9393H17.9398ZM17.3159 7.69949C17.3282 7.70493 17.3485 7.72123 17.3571 7.73255C17.6935 8.90115 17.8886 10.1504 17.938 11.4467H12.5609V7.15097C12.6383 7.15324 12.7157 7.1555 12.7914 7.15731C13.0947 7.16501 13.3813 7.17226 13.6674 7.20714C14.8834 7.35616 16.1176 7.53054 17.3114 7.69904H17.3159V7.69949ZM19.0214 11.4399C18.9756 10.2093 18.8118 9.047 18.522 7.90241C18.5519 7.90739 18.5813 7.91237 18.6107 7.91736C18.8602 7.95857 19.0979 7.99798 19.3351 8.0392L19.3677 8.04463C19.9631 8.14791 20.5783 8.25435 21.1818 8.36623C21.1922 8.36804 21.2117 8.37755 21.2225 8.3857C21.6146 9.37856 21.8337 10.38 21.8908 11.4395H19.0214V11.4399ZM20.6394 7.16501C20.3692 7.12017 20.1147 7.07805 19.8603 7.03456C19.681 7.00376 19.5022 6.97161 19.3233 6.9399C18.9752 6.87785 18.6148 6.81353 18.2581 6.75782C18.1757 6.74513 18.1725 6.73607 18.1539 6.67764C17.7008 5.27804 16.9583 4.01523 15.9469 2.92318C17.9706 3.80098 19.5176 5.19742 20.6535 7.16818C20.6489 7.16728 20.6444 7.16683 20.6399 7.16592L20.6394 7.16501ZM12.5605 17.9275C13.9802 17.8971 15.429 17.7445 16.9755 17.4618C16.9279 17.5601 16.8809 17.658 16.8347 17.754C16.6432 18.153 16.4453 18.5652 16.2235 18.9511C15.5707 20.0862 14.7924 20.8943 13.8444 21.421C13.4175 21.6584 12.9955 21.8047 12.56 21.8663V17.9275H12.5605ZM16.4666 20.4585C17.2046 19.5495 17.765 18.5122 18.1322 17.3758C18.1666 17.2693 18.1938 17.2458 18.3024 17.2286C18.8914 17.1348 19.4877 17.0302 20.0645 16.9287C20.2614 16.8943 20.4588 16.8594 20.6557 16.8254C19.528 18.7953 17.9661 20.2035 15.9034 21.108C16.099 20.8924 16.2864 20.6814 16.4671 20.4585H16.4666ZM21.2035 15.6256C20.3637 15.7769 19.5085 15.9241 18.6814 16.0663L18.5234 16.0935C18.8122 14.9407 18.9793 13.7518 19.02 12.5528H21.9025C21.8926 12.6416 21.8835 12.7299 21.8745 12.8164C21.8387 13.1598 21.8052 13.4841 21.7346 13.8016C21.6291 14.2758 21.4833 14.7528 21.3425 15.2143C21.3027 15.3448 21.2628 15.4748 21.2239 15.6052C21.2194 15.6115 21.2099 15.6206 21.2031 15.6256H21.2035Z" fill="#2F2F2F"/>
</svg>
