<svg width="24" height="24" viewBox="0 0 24 24" fill="none" xmlns="http://www.w3.org/2000/svg">
<path d="M2 12C2 12.2652 2.10536 12.5196 2.29289 12.7071C2.48043 12.8946 2.73478 13 3 13C3.26522 13 3.51957 12.8946 3.70711 12.7071C3.89464 12.5196 4 12.2652 4 12C4 11.7348 3.89464 11.4804 3.70711 11.2929C3.51957 11.1054 3.26522 11 3 11C2.73478 11 2.48043 11.1054 2.29289 11.2929C2.10536 11.4804 2 11.7348 2 12Z" fill="black"/>
<path d="M2 5C2 5.26522 2.10536 5.51957 2.29289 5.70711C2.48043 5.89464 2.73478 6 3 6C3.26522 6 3.51957 5.89464 3.70711 5.70711C3.89464 5.51957 4 5.26522 4 5C4 4.73478 3.89464 4.48043 3.70711 4.29289C3.51957 4.10536 3.26522 4 3 4C2.73478 4 2.48043 4.10536 2.29289 4.29289C2.10536 4.48043 2 4.73478 2 5Z" fill="black"/>
<path d="M2 19C2 19.2652 2.10536 19.5196 2.29289 19.7071C2.48043 19.8946 2.73478 20 3 20C3.26522 20 3.51957 19.8946 3.70711 19.7071C3.89464 19.5196 4 19.2652 4 19C4 18.7348 3.89464 18.4804 3.70711 18.2929C3.51957 18.1054 3.26522 18 3 18C2.73478 18 2.48043 18.1054 2.29289 18.2929C2.10536 18.4804 2 18.7348 2 19Z" fill="black"/>
<path d="M7 11H21C21.6667 11 22 11.3333 22 12C22 12.6667 21.6667 13 21 13H7C6.33333 13 6 12.6667 6 12C6 11.3333 6.33333 11 7 11Z" fill="black"/>
<path d="M7 4H21C21.6667 4 22 4.33333 22 5C22 5.66667 21.6667 6 21 6H7C6.33333 6 6 5.66667 6 5C6 4.33333 6.33333 4 7 4Z" fill="black"/>
<path d="M7 18H21C21.6667 18 22 18.3333 22 19C22 19.6667 21.6667 20 21 20H7C6.33333 20 6 19.6667 6 19C6 18.3333 6.33333 18 7 18Z" fill="black"/>
</svg>
