<svg width="24" height="24" viewBox="0 0 24 24" fill="none" xmlns="http://www.w3.org/2000/svg">
<path d="M12 1.125C9.0315 1.125 6.625 3.5315 6.625 6.5C6.625 9.4685 9.0315 11.875 12 11.875C14.9685 11.875 17.375 9.4685 17.375 6.5C17.375 3.5315 14.9685 1.125 12 1.125ZM12 2.875C12.4761 2.87496 12.9475 2.9687 13.3873 3.15085C13.8272 3.33301 14.2268 3.60002 14.5634 3.93664C14.9001 4.27325 15.1671 4.67288 15.3493 5.11271C15.5315 5.55253 15.6253 6.02393 15.6253 6.5C15.6253 6.97607 15.5315 7.44747 15.3493 7.88729C15.1671 8.32712 14.9001 8.72675 14.5634 9.06336C14.2268 9.39998 13.8272 9.66699 13.3873 9.84915C12.9475 10.0313 12.4761 10.125 12 10.125C11.0386 10.1249 10.1167 9.74297 9.43693 9.06316C8.75717 8.38335 8.37529 7.46136 8.37529 6.5C8.37529 5.53864 8.75717 4.61665 9.43693 3.93684C10.1167 3.25703 11.0386 2.87508 12 2.875ZM12 13.125C8.3305 13.125 5.253 14.537 2.8285 17.3305C2.37473 17.8535 2.12493 18.5226 2.125 19.215V20.25C2.125 21.7 3.3 22.875 4.75 22.875H19.25C20.7 22.875 21.875 21.7 21.875 20.25V19.215C21.8751 18.5226 21.6253 17.8535 21.1715 17.3305C18.747 14.537 15.6695 13.125 12 13.125ZM12 14.875C15.161 14.875 17.757 16.066 19.85 18.4775C20.027 18.6825 20.125 18.944 20.125 19.215V20.25C20.125 20.3649 20.1024 20.4787 20.0584 20.5848C20.0144 20.691 19.95 20.7875 19.8687 20.8687C19.7875 20.95 19.691 21.0144 19.5848 21.0584C19.4787 21.1024 19.3649 21.125 19.25 21.125H4.75C4.63509 21.125 4.52131 21.1024 4.41515 21.0584C4.30899 21.0144 4.21253 20.95 4.13128 20.8687C4.05003 20.7875 3.98558 20.691 3.94161 20.5848C3.89763 20.4787 3.875 20.3649 3.875 20.25V19.215C3.875 18.944 3.973 18.682 4.15 18.4775C6.243 16.066 8.839 14.875 12 14.875Z" fill="black"/>
</svg>
