<svg width="91" height="61" viewBox="0 0 91 61" fill="none" xmlns="http://www.w3.org/2000/svg">
<path d="M50.5419 38.4746C50.5421 38.8501 50.4687 39.2219 50.3259 39.5688C50.1831 39.9158 49.9737 40.2311 49.7097 40.4966C49.4457 40.7622 49.1322 40.9729 48.7872 41.1166C48.4422 41.2603 48.0724 41.3343 47.699 41.3343H6.94918C6.45007 41.3344 5.95974 41.2023 5.52748 40.9514C5.09522 40.7005 4.73627 40.3396 4.48671 39.905C4.23696 39.4705 4.10547 38.9776 4.10547 38.4757C4.10547 37.9739 4.23696 37.4809 4.48671 37.0465C4.73627 36.6118 5.09522 36.251 5.52748 36.0001C5.95974 35.7492 6.45007 35.6171 6.94918 35.6172H47.6978C48.0712 35.6172 48.4409 35.6911 48.7858 35.8348C49.1307 35.9784 49.4441 36.189 49.7081 36.4544C49.9721 36.7199 50.1815 37.035 50.3244 37.3818C50.4672 37.7286 50.5408 38.1004 50.5408 38.4757L50.5419 38.4746ZM87.0274 48.5745C87.027 49.3257 86.7301 50.0461 86.2019 50.5772C85.6736 51.1084 84.9572 51.407 84.2101 51.4073H50.2794C49.5419 51.3922 48.8398 51.087 48.3236 50.5573C47.8074 50.0276 47.5183 49.3156 47.5183 48.574C47.5183 47.8323 47.8074 47.1203 48.3236 46.5906C48.8398 46.0609 49.5419 45.7557 50.2794 45.7406H84.2089C84.9561 45.7409 85.6727 46.0395 86.2011 46.5706C86.7296 47.1017 87.0267 47.8221 87.0274 48.5734V48.5745Z" fill="#FFFBF8"/>
<path d="M58.5964 53.4569C58.5958 54.0004 58.3805 54.5214 57.998 54.9054C57.6155 55.2894 57.0969 55.5049 56.5564 55.5046H53.7637C53.4958 55.5046 53.2306 55.4516 52.9831 55.3486C52.7356 55.2455 52.5108 55.0945 52.3213 54.9041C52.1319 54.7137 51.9817 54.4876 51.8792 54.2388C51.7767 53.9899 51.7239 53.7233 51.7239 53.4539C51.7239 53.1846 51.7767 52.9179 51.8792 52.6691C51.9817 52.4203 52.1319 52.1942 52.3213 52.0038C52.5108 51.8134 52.7356 51.6623 52.9831 51.5593C53.2306 51.4563 53.4958 51.4033 53.7637 51.4033H56.5564C57.0971 51.4036 57.6157 51.6197 57.9981 52.004C58.3806 52.3884 58.5958 52.9096 58.5964 53.4534V53.4569ZM81.3422 57.5499C81.3422 57.8184 81.2895 58.0842 81.1873 58.3323C81.085 58.5803 80.9352 58.8056 80.7462 58.9954C80.5573 59.1851 80.3331 59.3355 80.0863 59.4381C79.8395 59.5406 79.575 59.5932 79.308 59.5929H41.4361C40.8973 59.5929 40.3804 59.3777 39.9994 58.9945C39.6184 58.6114 39.4043 58.0917 39.4043 57.5499C39.4043 57.0081 39.6184 56.4884 39.9994 56.1053C40.3804 55.7222 40.8973 55.5069 41.4361 55.5069H79.308C79.575 55.5068 79.8394 55.5595 80.0861 55.6621C80.3328 55.7647 80.557 55.9151 80.7459 56.1048C80.9348 56.2945 81.0847 56.5198 81.187 56.7677C81.2893 57.0157 81.342 57.2815 81.3422 57.5499ZM89.1614 57.5499C89.1614 58.0915 88.9475 58.611 88.5667 58.9941C88.1859 59.3772 87.6694 59.5926 87.1307 59.5929H85.5085C84.9697 59.5929 84.4529 59.3777 84.0718 58.9945C83.6908 58.6114 83.4767 58.0917 83.4767 57.5499C83.4767 57.0081 83.6908 56.4884 84.0718 56.1053C84.4529 55.7222 84.9697 55.5069 85.5085 55.5069H87.1307C87.6694 55.5072 88.1859 55.7226 88.5667 56.1057C88.9475 56.4888 89.1614 57.0083 89.1614 57.5499Z" fill="#FFFBF8"/>
<path d="M64.2365 3.29297H28.6532C28.6532 3.29297 25.9165 2.94915 25.7438 6.56106C25.571 10.173 25.7438 48.0535 25.7438 52.9796C25.6866 57.0023 30.6454 57.8788 32.4158 55.5882C34.8117 52.6651 33.2712 49.2234 32.7589 49.0497C32.2466 48.876 66.1201 49.0497 66.1201 49.0497V7.93753C66.1201 7.93753 66.5869 3.28359 64.2365 3.29297Z" fill="white"/>
<path d="M29.6295 57.277C28.4029 57.277 27.2405 56.8076 26.4411 55.992C25.6802 55.2152 25.2857 54.1708 25.3032 52.9739C25.3032 51.872 25.295 49.1015 25.2834 45.418C25.2437 32.8138 25.1667 9.35047 25.3032 6.54004C25.4328 3.81057 27.0223 2.83894 28.4659 2.83894C28.5474 2.83824 28.6289 2.84255 28.7098 2.85185H64.2383C64.5098 2.84646 64.7792 2.90068 65.0277 3.01073C65.2762 3.12078 65.4979 3.28401 65.6772 3.48904C66.8676 4.81153 66.5735 7.85431 66.5607 7.97987V49.4957H66.1161C66.1161 49.4957 51.0611 49.4183 41.1774 49.4183C36.6971 49.4183 34.5847 49.4347 33.6114 49.4523C33.7373 49.7172 33.8416 49.9919 33.923 50.2737C34.1987 51.2308 34.2365 52.2413 34.033 53.2164C33.8295 54.1915 33.391 55.1015 32.756 55.8665C32.0686 56.7571 30.9249 57.2746 29.6271 57.2746L29.6295 57.277ZM28.4624 3.72842C27.8182 3.72842 26.3069 4.00771 26.1832 6.58228C26.0536 9.37042 26.1271 32.8185 26.1633 45.4133C26.175 49.0932 26.1832 51.8673 26.1832 52.9786C26.1692 53.9396 26.4749 54.7622 27.0666 55.3654C27.4057 55.6961 27.8062 55.9563 28.2454 56.1313C28.6845 56.3063 29.1537 56.3925 29.626 56.3851C30.6495 56.3851 31.5376 55.9955 32.0639 55.3138C32.5168 54.777 32.8553 54.1526 33.0584 53.479C33.2616 52.8055 33.3251 52.0971 33.245 51.3979C33.1283 50.3089 32.7093 49.5614 32.5658 49.4488C32.4772 49.411 32.4042 49.3437 32.3592 49.2583C32.3141 49.1728 32.2997 49.0743 32.3183 48.9794C32.3464 48.8046 32.3627 48.699 32.9019 48.6344C33.7386 48.5335 35.8335 48.5335 41.1797 48.5335C50.0621 48.5335 63.1202 48.5957 65.6772 48.6074V7.93763C65.7578 7.12325 65.794 4.93826 65.019 4.08164C64.9234 3.96976 64.804 3.88081 64.6697 3.82132C64.5354 3.76183 64.3896 3.7333 64.2429 3.73781H28.6538C28.592 3.73781 28.5371 3.7296 28.4659 3.7296L28.4624 3.72842Z" fill="#B1B1B1"/>
<path d="M30.3506 11.1221H61.652V19.7693H30.3506V11.1221ZM30.3506 22.7393H59.9784V24.6028H30.3506V22.7393ZM30.3506 27.344H46.003V29.2074H30.3506V27.344ZM30.3506 32.7231H56.1085V34.5866H30.3506V32.7231ZM30.3506 38.0706H49.3081V39.934H30.3506V38.0706ZM76.4922 45.2146C77.2613 45.9868 77.4783 47.0405 76.9777 47.5686C76.477 48.0966 75.4488 47.8972 74.6821 47.1238L67.3063 39.7041C66.5396 38.9319 66.3213 37.877 66.8232 37.3501C67.325 36.8232 68.3508 37.0215 69.1164 37.7948L76.4922 45.2146Z" fill="#FFFBF8"/>
<path d="M76.229 48.081C75.6642 48.081 75.027 47.7806 74.5275 47.276L67.1517 39.8562C66.2858 38.9855 66.0722 37.8144 66.6651 37.1912C67.2287 36.5916 68.4471 36.8005 69.2746 37.6336L76.6491 45.0534C77.5151 45.923 77.731 47.0929 77.1381 47.7172C77.0199 47.8382 76.8779 47.9332 76.7212 47.996C76.5645 48.0589 76.3965 48.0882 76.2278 48.0821L76.229 48.081ZM67.5742 37.271C67.4668 37.2669 67.3597 37.2848 67.2594 37.3235C67.1591 37.3622 67.0677 37.421 66.9907 37.4963C66.5775 37.9294 66.7981 38.8658 67.4691 39.5417L74.8449 46.9615C75.2639 47.3828 75.7785 47.635 76.2337 47.635C76.3404 47.6379 76.4466 47.6193 76.546 47.5802C76.6455 47.5411 76.7361 47.4823 76.8125 47.4074C77.2245 46.9732 77.0028 46.038 76.3317 45.3644L68.9571 37.9434C68.5382 37.521 68.0235 37.2687 67.5672 37.2687L67.5742 37.271Z" fill="#B1B1B1"/>
<path d="M66.6768 37.5506C66.1119 37.7207 66.8868 37.2197 66.6079 37.9167C66.5064 38.5163 66.7491 39.0162 67.1996 39.4751L74.2019 46.639C74.9231 47.3795 76.3644 48.1305 76.718 47.6846C76.7542 47.6377 76.7951 47.5966 76.8347 47.5508L66.6768 37.5506Z" fill="#B1B1B1"/>
<path d="M67.9033 24.4752C66.4516 23.0158 64.6021 22.0219 62.5887 21.6194C60.5753 21.2168 58.4883 21.4236 56.5918 22.2136C54.6952 23.0035 53.0742 24.3412 51.9338 26.0575C50.7933 27.7738 50.1846 29.7916 50.1846 31.8557C50.1846 33.9198 50.7933 35.9376 51.9338 37.6539C53.0742 39.3702 54.6952 40.7079 56.5918 41.4979C58.4883 42.2878 60.5753 42.4946 62.5887 42.092C64.6021 41.6895 66.4516 40.6956 67.9033 39.2362C69.8485 37.278 70.9411 34.6234 70.9411 31.8557C70.9411 29.088 69.8485 26.4335 67.9033 24.4752Z" fill="white"/>
<path d="M60.566 42.7308C58.0636 42.7305 55.6387 41.8578 53.7045 40.2613C51.7704 38.6649 50.4465 36.4435 49.9586 33.9757C49.4707 31.5079 49.8488 28.9463 51.0287 26.7274C52.2085 24.5085 54.117 22.7696 56.429 21.8069C58.741 20.8443 61.3134 20.7175 63.7079 21.4481C66.1025 22.1787 68.171 23.7216 69.5611 25.8138C70.9511 27.906 71.5767 30.4181 71.3312 32.9221C71.0857 35.426 69.9844 37.767 68.2148 39.546C67.2119 40.5581 66.0195 41.3604 64.7064 41.9064C63.3934 42.4524 61.9857 42.7314 60.5648 42.7272L60.566 42.7308ZM60.566 21.8702C58.268 21.8719 56.0418 22.6748 54.2666 24.142C52.4914 25.6091 51.277 27.6498 50.8304 29.9163C50.3837 32.1828 50.7325 34.5349 51.8172 36.5718C52.9019 38.6088 54.6554 40.2045 56.7791 41.0873C58.9027 41.97 61.265 42.085 63.4635 41.4127C65.6621 40.7405 67.5608 39.3226 68.8362 37.4006C70.1115 35.4786 70.6847 33.1713 70.458 30.8721C70.2312 28.5728 69.2187 26.4237 67.5928 24.7909C66.6723 23.8616 65.5778 23.1251 64.3725 22.6237C63.1672 22.1224 61.875 21.8663 60.5706 21.8702H60.566Z" fill="#B1B1B1"/>
<path d="M32.2659 48.7448C32.2659 48.7448 35.5208 54.9055 29.458 56.8335C36.2502 56.7725 68.5366 57.0036 68.5366 57.0036C68.5366 57.0036 71.1041 55.396 71.8043 53.6487C72.5046 51.9014 71.2908 49.4371 70.2638 48.7202C68.0208 48.5007 32.2601 48.746 32.2601 48.746L32.2659 48.7448Z" fill="#EEEEEE"/>
<path d="M68.5993 57.2248H68.5351C68.2842 57.2248 43.3129 57.0453 32.8433 57.0453C31.4428 57.0453 30.2956 57.0453 29.4939 57.0547H29.4822L29.1227 57.0148L29.0947 56.8L29.1064 56.5888H29.3375L29.4355 56.5994C31.0414 56.0795 32.1045 55.2018 32.597 53.9943C33.54 51.679 32.0835 48.8698 32.0695 48.8416L31.898 48.5177H32.2621C32.4337 48.5177 49.4819 48.4004 60.647 48.4004C66.4193 48.4004 69.6648 48.4309 70.2904 48.4919L70.3475 48.4978L70.3954 48.5306C71.5356 49.3262 72.7447 51.9161 72.0141 53.7256C71.2835 55.535 68.7615 57.118 68.653 57.1861L68.5993 57.2248ZM32.8433 56.6005C43.0503 56.6005 67.0378 56.7695 68.4733 56.7801C68.8397 56.5454 70.9883 55.0879 71.6056 53.5636C72.2662 51.9208 71.1003 49.6196 70.1912 48.9343C69.4536 48.878 66.2442 48.8498 60.6505 48.8498C50.3735 48.8498 35.1109 48.9484 32.618 48.9672C32.9915 49.8085 33.8446 52.1191 33.0113 54.1703C32.5865 55.2158 31.7883 56.0314 30.6306 56.6064H32.848L32.8433 56.6005Z" fill="#B1B1B1"/>
</svg>
