<svg width="30" height="30" viewBox="0 0 30 30" fill="none" xmlns="http://www.w3.org/2000/svg">
<g clip-path="url(#clip0_634_3973)">
<path fill-rule="evenodd" clip-rule="evenodd" d="M15.0307 0.996094C22.7816 0.996094 29.0653 7.27983 29.0653 15.0307C29.0653 22.7816 22.7816 29.0653 15.0307 29.0653C7.27983 29.0653 0.996094 22.7816 0.996094 15.0307C0.996094 7.27983 7.27983 0.996094 15.0307 0.996094ZM15.0307 6.91305C16.048 6.91305 16.8784 7.73658 16.8784 8.7608C16.8784 9.7781 16.0549 10.6086 15.0307 10.6086C14.0134 10.6086 13.1829 9.78502 13.1829 8.7608C13.1829 7.7435 14.0065 6.91305 15.0307 6.91305ZM15.0307 11.8819C15.8542 11.8819 16.5255 12.5532 16.5255 13.3767V21.522C16.5255 22.3456 15.8542 23.0169 15.0307 23.0169C14.2072 23.0169 13.5359 22.3456 13.5359 21.522V13.3767C13.5359 12.5532 14.2072 11.8819 15.0307 11.8819ZM15.0307 3.22447C21.5497 3.22447 26.8369 8.51166 26.8369 15.0307C26.8369 21.5497 21.5497 26.8369 15.0307 26.8369C8.51166 26.8369 3.22447 21.5497 3.22447 15.0307C3.22447 8.51166 8.51166 3.22447 15.0307 3.22447Z" fill="#FF9500"/>
</g>
<defs>
<clipPath id="clip0_634_3973">
<rect width="30" height="30" fill="white"/>
</clipPath>
</defs>
</svg>
