<svg width="30" height="30" viewBox="0 0 30 30" fill="none" xmlns="http://www.w3.org/2000/svg">
<path d="M24.0625 7.5C24.0625 7.25136 24.1613 7.0129 24.3371 6.83709C24.5129 6.66127 24.7514 6.5625 25 6.5625C25.2486 6.5625 25.4871 6.66127 25.6629 6.83709C25.8387 7.0129 25.9375 7.25136 25.9375 7.5V24.0625C25.9375 25.9609 24.3984 27.5 22.5 27.5H7.5C5.60156 27.5 4.0625 25.9609 4.0625 24.0625V5.9375C4.0625 4.03906 5.60156 2.5 7.5 2.5H25C25.2486 2.5 25.4871 2.59877 25.6629 2.77459C25.8387 2.9504 25.9375 3.18886 25.9375 3.4375C25.9375 3.68614 25.8387 3.9246 25.6629 4.10041C25.4871 4.27623 25.2486 4.375 25 4.375H7.5C7.29481 4.375 7.09163 4.41542 6.90206 4.49394C6.71249 4.57246 6.54024 4.68755 6.39515 4.83265C6.25005 4.97774 6.13496 5.14999 6.05644 5.33956C5.97792 5.52913 5.9375 5.73231 5.9375 5.9375V24.0625C5.9375 24.2677 5.97792 24.4709 6.05644 24.6604C6.13496 24.85 6.25005 25.0223 6.39515 25.1674C6.54024 25.3124 6.71249 25.4275 6.90206 25.5061C7.09163 25.5846 7.29481 25.625 7.5 25.625H22.5C22.7052 25.625 22.9084 25.5846 23.0979 25.5061C23.2875 25.4275 23.4598 25.3124 23.6049 25.1674C23.7499 25.0223 23.865 24.85 23.9436 24.6604C24.0221 24.4709 24.0625 24.2677 24.0625 24.0625V7.5ZM10 12.8125C9.75136 12.8125 9.5129 12.7137 9.33709 12.5379C9.16127 12.3621 9.0625 12.1236 9.0625 11.875C9.0625 11.6264 9.16127 11.3879 9.33709 11.2121C9.5129 11.0363 9.75136 10.9375 10 10.9375H20C20.2486 10.9375 20.4871 11.0363 20.6629 11.2121C20.8387 11.3879 20.9375 11.6264 20.9375 11.875C20.9375 12.1236 20.8387 12.3621 20.6629 12.5379C20.4871 12.7137 20.2486 12.8125 20 12.8125H10ZM10 17.8125C9.75136 17.8125 9.5129 17.7137 9.33709 17.5379C9.16127 17.3621 9.0625 17.1236 9.0625 16.875C9.0625 16.6264 9.16127 16.3879 9.33709 16.2121C9.5129 16.0363 9.75136 15.9375 10 15.9375H16.25C16.4986 15.9375 16.7371 16.0363 16.9129 16.2121C17.0887 16.3879 17.1875 16.6264 17.1875 16.875C17.1875 17.1236 17.0887 17.3621 16.9129 17.5379C16.7371 17.7137 16.4986 17.8125 16.25 17.8125H10Z" fill="black"/>
</svg>
