<svg width="60" height="60" viewBox="0 0 60 60" fill="none" xmlns="http://www.w3.org/2000/svg">
<path d="M29.9765 4.16016C34.1281 4.16016 37.8883 5.84402 40.6106 8.56588C43.3326 11.288 45.0161 15.0482 45.0161 19.2001C45.0161 23.3518 43.3326 27.1136 40.6106 29.8344C39.9285 30.5163 39.1819 31.1325 38.38 31.6735C41.5572 32.8752 44.4096 34.7365 46.7704 37.0904C51.0754 41.3856 53.7386 47.3141 53.7386 53.8564C53.7386 54.9864 52.8216 55.9035 51.6901 55.9035C50.5603 55.9035 49.6432 54.9865 49.6432 53.8564C49.6432 48.4361 47.4444 43.5316 43.8899 39.9864C40.3366 36.4427 35.4262 34.2473 30.0009 34.2401H29.9765H29.9751H29.9517C24.5242 34.2473 19.6139 36.4427 16.0616 39.9864C12.5072 43.5316 10.3083 48.4361 10.3083 53.8564C10.3083 54.9864 9.39125 55.9035 8.26004 55.9035C7.12988 55.9035 6.21289 54.9865 6.21289 53.8564C6.21289 47.3142 8.87627 41.3856 13.1821 37.0904C15.5408 34.7365 18.3932 32.8752 21.5705 31.6735C20.7695 31.1326 20.023 30.5163 19.3411 29.8344C16.6201 27.1136 14.9364 23.3518 14.9364 19.2001C14.9364 15.0482 16.6201 11.288 19.3411 8.56588C22.063 5.84402 25.8234 4.16016 29.9765 4.16016ZM37.7145 11.4622C35.7345 9.48211 32.998 8.25551 29.9764 8.25551C26.9545 8.25551 24.217 9.48211 22.237 11.4622C20.257 13.4422 19.0306 16.1783 19.0306 19.2002C19.0306 22.2221 20.257 24.9582 22.237 26.9396C24.2111 28.9136 26.9391 30.1377 29.9517 30.1448H29.9751H29.9764H29.9998C33.012 30.1377 35.7399 28.9136 37.7142 26.9396C39.6945 24.9582 40.9208 22.222 40.9208 19.2002C40.9208 16.1783 39.6945 13.4422 37.7145 11.4622Z" fill="black"/>
</svg>
