<svg width="30" height="30" viewBox="0 0 30 30" fill="none" xmlns="http://www.w3.org/2000/svg">
<path d="M18.2791 25.1227H23.948V27.3824H18.2791V25.1227ZM18.2791 21.3435H25.3116V23.6032H18.2791V21.3435ZM18.246 19.8435L18.2577 17.5837L26.7902 17.6266L26.7785 19.8863L18.246 19.8435ZM5.71419 25.1616L11.8116 18.1292C11.0518 17.9149 10.3506 17.5837 9.66873 17.1746L4.01938 23.7006C3.45445 24.3629 3.31808 25.298 3.66873 26.0967C4.01938 26.8954 4.83756 27.3824 5.71419 27.4019L16.0194 27.4604L16.0389 25.2201L5.71419 25.1616ZM14.4025 2.07723C10.2726 2.05775 6.92198 5.38892 6.9025 9.49931C6.88302 13.6097 10.2142 16.9798 14.3246 16.9993C15.3044 17.0044 16.2756 16.8165 17.1828 16.4463C18.0899 16.0761 18.9153 15.5308 19.6117 14.8416C20.3082 14.1524 20.862 13.3327 21.2417 12.4295C21.6214 11.5262 21.8195 10.557 21.8246 9.57723C21.8297 8.59743 21.6418 7.62622 21.2715 6.71905C20.9013 5.81188 20.356 4.98651 19.6668 4.29007C18.9776 3.59363 18.158 3.03976 17.2547 2.66008C16.3515 2.2804 15.3823 2.08235 14.4025 2.07723ZM14.3246 14.7591C13.639 14.754 12.9611 14.6139 12.3296 14.3468C11.6981 14.0797 11.1255 13.6908 10.6443 13.2024C10.1631 12.714 9.78285 12.1356 9.52522 11.5002C9.26758 10.8648 9.13762 10.1849 9.14276 9.49931C9.15151 8.11579 9.70765 6.79201 10.6896 5.81735C11.6716 4.84269 12.9995 4.29644 14.383 4.29801C17.2661 4.31749 19.5843 6.65516 19.5843 9.53827C19.5756 10.927 19.0174 12.2557 18.0318 13.234C17.0461 14.2123 15.7133 14.7606 14.3246 14.7591Z" fill="black"/>
</svg>
