<svg width="30" height="30" viewBox="0 0 30 30" fill="none" xmlns="http://www.w3.org/2000/svg">
<path d="M14.9921 3.87173C15.0438 3.87173 15.0929 3.87948 15.142 3.89499L23.6467 6.47225C23.8664 6.53946 24.0138 6.73851 24.0138 6.96599V17.9652C24.0138 19.0122 23.7243 20.0384 23.1788 20.9303C22.6334 21.8247 21.8527 22.5485 20.9221 23.0267L14.9921 26.0667L9.06463 23.0267C8.13402 22.5485 7.35334 21.8247 6.8079 20.9303C6.26247 20.0358 5.97294 19.0122 5.97294 17.9652V6.96599C5.97294 6.73593 6.12029 6.53688 6.34002 6.47225L14.8447 3.89499C14.8913 3.87948 14.943 3.87173 14.9921 3.87173ZM14.9921 1.80371C14.7387 1.80371 14.488 1.8399 14.2424 1.91487L5.73771 4.49213C4.64683 4.82301 3.90234 5.826 3.90234 6.96599V17.9652C3.90234 20.8734 5.53091 23.5385 8.11851 24.8647L14.2864 28.0287C14.5087 28.1425 14.7517 28.1993 14.9947 28.1993C15.2376 28.1993 15.4806 28.1425 15.703 28.0287L21.8682 24.8672C24.4558 23.5411 26.0844 20.876 26.0844 17.9678V6.96599C26.0844 5.826 25.3399 4.82301 24.249 4.49213L15.7443 1.91487C15.4987 1.8399 15.2454 1.80371 14.9921 1.80371Z" fill="#FF7545"/>
<path d="M14.0249 19.8086C13.7612 19.8086 13.495 19.7078 13.2933 19.5062L10.1138 16.3266C9.71051 15.9233 9.71051 15.2693 10.1138 14.8635C10.517 14.4576 11.171 14.4602 11.5769 14.8635L14.0249 17.3115L19.9627 11.3737C20.366 10.9704 21.02 10.9704 21.4258 11.3737C21.8317 11.777 21.8291 12.431 21.4258 12.8368L14.7565 19.5062C14.5523 19.7078 14.2886 19.8086 14.0249 19.8086ZM24.5382 10.5439C24.4399 10.5439 24.3391 10.5284 24.2383 10.5L15.4829 7.84516C15.1752 7.7521 14.8469 7.7521 14.5393 7.84516L5.78387 10.4974C5.23843 10.6628 4.65939 10.3552 4.49395 9.80719C4.3285 9.25916 4.63612 8.6827 5.18415 8.51726L13.9396 5.86503C14.6401 5.65306 15.382 5.65306 16.0826 5.86503L24.838 8.51726C25.3835 8.6827 25.6937 9.25916 25.5282 9.80719C25.3912 10.2544 24.9828 10.5439 24.5382 10.5439Z" fill="#FF7545"/>
</svg>
