<svg width="30" height="30" viewBox="0 0 30 30" fill="none" xmlns="http://www.w3.org/2000/svg">
<path d="M14.7186 27.5761C14.2899 27.5782 13.8744 27.4271 13.5471 27.1501L10.0791 24.2011L6.62912 26.6581C6.35845 26.8516 6.03967 26.9668 5.70781 26.991C5.37595 27.0152 5.04383 26.9475 4.74794 26.7953C4.45205 26.6431 4.20383 26.4123 4.03054 26.1282C3.85725 25.8442 3.76559 25.5179 3.76563 25.1851V7.53461C3.76682 6.5245 4.16861 5.5561 4.88286 4.84185C5.59712 4.12759 6.56552 3.7258 7.57563 3.72461H21.8601C22.8704 3.7258 23.8389 4.12754 24.5534 4.84176C25.2679 5.55597 25.67 6.52436 25.6716 7.53461V25.1731C25.672 25.507 25.5801 25.8344 25.406 26.1193C25.232 26.4042 24.9825 26.6354 24.6853 26.7874C24.388 26.9393 24.0545 27.0061 23.7216 26.9804C23.3888 26.9547 23.0695 26.8374 22.7991 26.6416L19.4181 24.1996L15.8826 27.1501C15.5573 27.4254 15.1448 27.5764 14.7186 27.5761ZM10.0686 22.3981C10.5011 22.3951 10.9201 22.548 11.2491 22.8286L14.7171 25.7716L18.2526 22.8211C18.5614 22.5622 18.9478 22.4137 19.3505 22.3993C19.7532 22.3849 20.1492 22.5054 20.4756 22.7416L23.8491 25.1821H23.8566C23.8612 25.1799 23.8652 25.1769 23.8686 25.1731V7.53461C23.8678 7.00151 23.6556 6.49049 23.2785 6.11367C22.9014 5.73685 22.3902 5.52501 21.8571 5.52461H7.57262C7.03966 5.52501 6.52864 5.7369 6.15178 6.11376C5.77492 6.49063 5.56302 7.00165 5.56263 7.53461V25.1851C5.56327 25.1883 5.56493 25.1912 5.56737 25.1934C5.5698 25.1955 5.57288 25.1968 5.57613 25.1971L9.02613 22.7356C9.33094 22.5169 9.69647 22.3989 10.0716 22.3981H10.0686Z" fill="#FF7545"/>
<path d="M18.6005 11.9719H10.8395C10.6008 11.9719 10.3718 11.8771 10.2031 11.7083C10.0343 11.5395 9.93945 11.3106 9.93945 11.0719C9.93945 10.8332 10.0343 10.6043 10.2031 10.4355C10.3718 10.2667 10.6008 10.1719 10.8395 10.1719H18.6005C18.8391 10.1719 19.0681 10.2667 19.2368 10.4355C19.4056 10.6043 19.5005 10.8332 19.5005 11.0719C19.5005 11.3106 19.4056 11.5395 19.2368 11.7083C19.0681 11.8771 18.8391 11.9719 18.6005 11.9719ZM18.6005 17.2999H10.8395C10.6008 17.2999 10.3718 17.2051 10.2031 17.0363C10.0343 16.8675 9.93945 16.6386 9.93945 16.3999C9.93945 16.1612 10.0343 15.9323 10.2031 15.7635C10.3718 15.5947 10.6008 15.4999 10.8395 15.4999H18.6005C18.8391 15.4999 19.0681 15.5947 19.2368 15.7635C19.4056 15.9323 19.5005 16.1612 19.5005 16.3999C19.5005 16.6386 19.4056 16.8675 19.2368 17.0363C19.0681 17.2051 18.8391 17.2999 18.6005 17.2999Z" fill="#FF7545"/>
</svg>
