<svg width="30" height="30" viewBox="0 0 30 30" fill="none" xmlns="http://www.w3.org/2000/svg">
<path d="M14.7196 27.5761C14.2908 27.5782 13.8754 27.4271 13.5481 27.1501L10.0801 24.2011L6.6301 26.6581C6.35942 26.8516 6.04065 26.9668 5.70879 26.991C5.37692 27.0152 5.04481 26.9475 4.74892 26.7953C4.45303 26.6431 4.20481 26.4123 4.03151 26.1282C3.85822 25.8442 3.76656 25.5179 3.7666 25.1851V7.53461C3.76779 6.5245 4.16958 5.5561 4.88384 4.84185C5.5981 4.12759 6.56649 3.7258 7.5766 3.72461H21.8611C22.8713 3.7258 23.8399 4.12754 24.5544 4.84176C25.2689 5.55597 25.671 6.52436 25.6726 7.53461V25.1731C25.673 25.507 25.5811 25.8344 25.407 26.1193C25.2329 26.4042 24.9835 26.6354 24.6862 26.7874C24.389 26.9393 24.0555 27.0061 23.7226 26.9804C23.3898 26.9547 23.0705 26.8374 22.8001 26.6416L19.4191 24.1996L15.8836 27.1501C15.5583 27.4254 15.1458 27.5764 14.7196 27.5761ZM10.0696 22.3981C10.502 22.3951 10.9211 22.548 11.2501 22.8286L14.7181 25.7716L18.2536 22.8211C18.5624 22.5622 18.9487 22.4137 19.3514 22.3993C19.7542 22.3849 20.1501 22.5054 20.4766 22.7416L23.8501 25.1821H23.8576C23.8621 25.1799 23.8662 25.1769 23.8696 25.1731V7.53461C23.8688 7.00151 23.6566 6.49049 23.2795 6.11367C22.9024 5.73685 22.3912 5.52501 21.8581 5.52461H7.5736C7.04064 5.52501 6.52962 5.7369 6.15276 6.11376C5.77589 6.49063 5.564 7.00165 5.5636 7.53461V25.1851C5.56424 25.1883 5.56591 25.1912 5.56834 25.1934C5.57078 25.1955 5.57385 25.1968 5.5771 25.1971L9.0271 22.7356C9.33192 22.5169 9.69745 22.3989 10.0726 22.3981H10.0696Z" fill="black"/>
<path d="M18.6005 11.9719H10.8395C10.6008 11.9719 10.3718 11.8771 10.2031 11.7083C10.0343 11.5395 9.93945 11.3106 9.93945 11.0719C9.93945 10.8332 10.0343 10.6043 10.2031 10.4355C10.3718 10.2667 10.6008 10.1719 10.8395 10.1719H18.6005C18.8391 10.1719 19.0681 10.2667 19.2368 10.4355C19.4056 10.6043 19.5005 10.8332 19.5005 11.0719C19.5005 11.3106 19.4056 11.5395 19.2368 11.7083C19.0681 11.8771 18.8391 11.9719 18.6005 11.9719ZM18.6005 17.2999H10.8395C10.6008 17.2999 10.3718 17.2051 10.2031 17.0363C10.0343 16.8675 9.93945 16.6386 9.93945 16.3999C9.93945 16.1612 10.0343 15.9323 10.2031 15.7635C10.3718 15.5947 10.6008 15.4999 10.8395 15.4999H18.6005C18.8391 15.4999 19.0681 15.5947 19.2368 15.7635C19.4056 15.9323 19.5005 16.1612 19.5005 16.3999C19.5005 16.6386 19.4056 16.8675 19.2368 17.0363C19.0681 17.2051 18.8391 17.2999 18.6005 17.2999Z" fill="black"/>
</svg>
