<svg width="21" height="20" viewBox="0 0 21 20" fill="none" xmlns="http://www.w3.org/2000/svg">
<g clip-path="url(#clip0_636_1997)">
<path d="M10.6001 0C5.08593 0 0.600098 4.48583 0.600098 10C0.600098 15.5142 5.08593 20 10.6001 20C16.1143 20 20.6001 15.5142 20.6001 10C20.6001 4.48583 16.1143 0 10.6001 0ZM9.4701 8.96667L12.0043 9.38917C13.1226 9.575 13.9334 10.5333 13.9334 11.6667C13.9334 13.045 12.8118 14.1667 11.4334 14.1667V15.8333H9.76676V14.1667C8.38843 14.1667 7.26676 13.045 7.26676 11.6667H8.93343C8.93343 12.1267 9.30676 12.5 9.76676 12.5H11.4334C11.8934 12.5 12.2668 12.1267 12.2668 11.6667C12.2668 11.3517 12.0409 11.085 11.7301 11.0333L9.19593 10.6108C8.0776 10.425 7.26676 9.46667 7.26676 8.33333C7.26676 6.955 8.38843 5.83333 9.76676 5.83333V4.16667H11.4334V5.83333C12.8118 5.83333 13.9334 6.955 13.9334 8.33333H12.2668C12.2668 7.87417 11.8934 7.5 11.4334 7.5H9.76676C9.30676 7.5 8.93343 7.87417 8.93343 8.33333C8.93343 8.64833 9.15926 8.915 9.4701 8.96667Z" fill="#EDB600"/>
</g>
<defs>
<clipPath id="clip0_636_1997">
<rect width="20" height="20" fill="white" transform="translate(0.600098)"/>
</clipPath>
</defs>
</svg>
