<svg width="21" height="20" viewBox="0 0 21 20" fill="none" xmlns="http://www.w3.org/2000/svg">
<g clip-path="url(#clip0_636_1832)">
<path d="M10.6001 20C16.1229 20 20.6001 15.5228 20.6001 10C20.6001 4.47715 16.1229 0 10.6001 0C5.07725 0 0.600098 4.47715 0.600098 10C0.600098 15.5228 5.07725 20 10.6001 20Z" fill="#59AF99"/>
<path d="M11.6383 8.76861V7.58761H14.3253V5.72461H6.86833V7.58761H9.56233V8.76861C7.30533 8.87761 5.61133 9.33061 5.61133 9.86861C5.61133 10.4066 7.30333 10.8616 9.56233 10.9686V14.8686H11.6383V10.9686C13.8953 10.8606 15.5893 10.4076 15.5893 9.86861C15.5893 9.32961 13.9003 8.87761 11.6383 8.76861ZM10.6003 10.6246C8.15633 10.6246 6.17533 10.2466 6.17533 9.79161C6.17533 9.40061 7.61833 9.07161 9.56033 8.98361V10.3176C9.89433 10.3326 10.2413 10.3416 10.5983 10.3416C10.9553 10.3416 11.3043 10.3326 11.6363 10.3176V8.98361C13.5783 9.07161 15.0213 9.40061 15.0213 9.79161C15.0253 10.2516 13.0443 10.6246 10.6003 10.6246Z" fill="white"/>
</g>
<defs>
<clipPath id="clip0_636_1832">
<rect width="20" height="20" fill="white" transform="translate(0.600098)"/>
</clipPath>
</defs>
</svg>
