<svg width="20" height="20" viewBox="0 0 20 20" fill="none" xmlns="http://www.w3.org/2000/svg">
<path d="M8.50586 1.85547C12.1896 1.85547 15.1758 4.8417 15.1758 8.52539C15.1758 10.0266 14.6798 11.4121 13.8428 12.5267L17.927 16.6109C18.049 16.733 18.049 16.9308 17.927 17.0529L17.0431 17.9367C16.921 18.0588 16.7232 18.0588 16.6011 17.9367L12.5183 13.8539C11.4018 14.696 10.0121 15.1953 8.50586 15.1953C4.82217 15.1953 1.83594 12.2091 1.83594 8.52539C1.83594 4.8417 4.82217 1.85547 8.50586 1.85547ZM8.50586 3.57422C5.77141 3.57422 3.55469 5.79094 3.55469 8.52539C3.55469 11.2598 5.77141 13.4766 8.50586 13.4766C11.2403 13.4766 13.457 11.2598 13.457 8.52539C13.457 5.79094 11.2403 3.57422 8.50586 3.57422Z" fill="white"/>
</svg>
