<svg width="30" height="30" viewBox="0 0 30 30" fill="none" xmlns="http://www.w3.org/2000/svg">
<path d="M14.5154 4.23488C13.4994 4.23488 12.5251 4.63846 11.8067 5.35685C11.0883 6.07523 10.6847 7.04957 10.6847 8.06552C10.6847 9.08147 11.0883 10.0558 11.8067 10.7742C12.5251 11.4926 13.4994 11.8962 14.5154 11.8962C15.5313 11.8962 16.5057 11.4926 17.224 10.7742C17.9424 10.0558 18.346 9.08147 18.346 8.06552C18.346 7.04957 17.9424 6.07523 17.224 5.35685C16.5057 4.63846 15.5313 4.23488 14.5154 4.23488ZM8.6686 8.06552C8.6686 6.51486 9.2846 5.02771 10.3811 3.93123C11.4776 2.83475 12.9647 2.21875 14.5154 2.21875C16.066 2.21875 17.5532 2.83475 18.6497 3.93123C19.7461 5.02771 20.3621 6.51486 20.3621 8.06552C20.3621 9.61619 19.7461 11.1033 18.6497 12.1998C17.5532 13.2963 16.066 13.9123 14.5154 13.9123C12.9647 13.9123 11.4776 13.2963 10.3811 12.1998C9.2846 11.1033 8.6686 9.61619 8.6686 8.06552ZM10.4831 17.9446C9.0394 17.9446 7.65481 18.5181 6.63395 19.5389C5.61308 20.5598 5.03957 21.9444 5.03957 23.3881C5.03957 23.9763 5.27322 24.5404 5.68913 24.9563C6.10504 25.3722 6.66913 25.6058 7.25731 25.6058H12.9025C13.0349 25.6058 13.166 25.6319 13.2883 25.6825C13.4106 25.7332 13.5218 25.8074 13.6154 25.901C13.709 25.9947 13.7833 26.1058 13.834 26.2281C13.8846 26.3504 13.9107 26.4815 13.9107 26.6139C13.9107 26.7463 13.8846 26.8774 13.834 26.9997C13.7833 27.122 13.709 27.2332 13.6154 27.3268C13.5218 27.4204 13.4106 27.4946 13.2883 27.5453C13.166 27.5959 13.0349 27.622 12.9025 27.622H7.25731C6.70131 27.622 6.15075 27.5125 5.63708 27.2997C5.1234 27.0869 4.65666 26.7751 4.26351 26.3819C3.87036 25.9888 3.55849 25.522 3.34572 25.0083C3.13295 24.4947 3.02344 23.9441 3.02344 23.3881C3.02344 21.4097 3.80937 19.5123 5.20833 18.1133C6.60729 16.7144 8.50469 15.9284 10.4831 15.9284H14.5154C14.6478 15.9284 14.7789 15.9545 14.9012 16.0051C15.0235 16.0558 15.1347 16.13 15.2283 16.2236C15.3219 16.3172 15.3962 16.4284 15.4469 16.5507C15.4975 16.673 15.5236 16.8041 15.5236 16.9365C15.5236 17.0689 15.4975 17.2 15.4469 17.3223C15.3962 17.4446 15.3219 17.5557 15.2283 17.6494C15.1347 17.743 15.0235 17.8172 14.9012 17.8679C14.7789 17.9185 14.6478 17.9446 14.5154 17.9446H10.4831ZM24.4823 19.0655C24.1266 18.7098 23.7043 18.4276 23.2395 18.2351C22.7747 18.0426 22.2765 17.9435 21.7734 17.9435C21.2704 17.9435 20.7722 18.0426 20.3074 18.2351C19.8426 18.4276 19.4203 18.7098 19.0646 19.0655C18.7088 19.4213 18.4266 19.8436 18.2341 20.3084C18.0416 20.7732 17.9425 21.2713 17.9425 21.7744C17.9425 22.2775 18.0416 22.7756 18.2341 23.2404C18.4266 23.7052 18.7088 24.1275 19.0646 24.4833C19.783 25.2017 20.7574 25.6053 21.7734 25.6053C22.7895 25.6053 23.7639 25.2017 24.4823 24.4833C25.2007 23.7648 25.6044 22.7904 25.6044 21.7744C25.6044 20.7584 25.2007 19.784 24.4823 19.0655ZM17.6388 17.6405C18.1811 17.0949 18.8258 16.6616 19.5358 16.3656C20.2459 16.0695 21.0074 15.9165 21.7768 15.9153C22.5461 15.9142 23.3081 16.0648 24.019 16.3587C24.73 16.6525 25.376 17.0838 25.92 17.6278C26.464 18.1718 26.8953 18.8178 27.1892 19.5288C27.483 20.2398 27.6337 21.0018 27.6325 21.7711C27.6313 22.5404 27.4783 23.3019 27.1823 24.012C26.8862 24.7221 26.453 25.3668 25.9073 25.9091C24.807 26.9868 23.3258 27.5868 21.7857 27.5787C20.2455 27.5707 18.7707 26.9553 17.6817 25.8661C16.5927 24.777 15.9774 23.3022 15.9695 21.762C15.9616 20.2218 16.5618 18.7408 17.6396 17.6405H17.6388Z" fill="black"/>
<path d="M17.6391 17.6391C17.7327 17.5455 17.8438 17.4712 17.9662 17.4205C18.0885 17.3698 18.2196 17.3438 18.352 17.3438C18.4844 17.3438 18.6155 17.3698 18.7378 17.4205C18.8602 17.4712 18.9713 17.5455 19.0649 17.6391L25.9085 24.4818C26.0975 24.6709 26.2037 24.9274 26.2037 25.1947C26.2037 25.4621 26.0975 25.7186 25.9085 25.9076C25.7194 26.0967 25.4629 26.2029 25.1956 26.2029C24.9282 26.2029 24.6717 26.0967 24.4826 25.9076L17.6391 19.0649C17.5455 18.9713 17.4712 18.8602 17.4205 18.7378C17.3698 18.6155 17.3438 18.4844 17.3438 18.352C17.3438 18.2196 17.3698 18.0885 17.4205 17.9662C17.4712 17.8438 17.5455 17.7327 17.6391 17.6391Z" fill="black"/>
</svg>
