<svg width="25" height="16" viewBox="0 0 25 16" fill="none" xmlns="http://www.w3.org/2000/svg">
<path d="M24.3752 9.03131L17.5501 15.6197C17.4266 15.7402 17.2796 15.8358 17.1176 15.9011C16.9556 15.9664 16.7818 16 16.6062 16C16.4306 16 16.2568 15.9664 16.0948 15.9011C15.9327 15.8358 15.7857 15.7402 15.6623 15.6197C15.5333 15.507 15.4301 15.3695 15.3595 15.216C15.2889 15.0626 15.2525 14.8965 15.2525 14.7286C15.2525 14.5606 15.2889 14.3945 15.3595 14.2411C15.4301 14.0876 15.5333 13.9501 15.6623 13.8374L20.3299 9.27162L1.49333 9.27161C1.30646 9.2943 1.11673 9.27834 0.936744 9.22481C0.756755 9.17127 0.590623 9.08139 0.449384 8.96112C0.308145 8.84085 0.19503 8.69295 0.11755 8.52724C0.0400711 8.36153 -3.57638e-07 8.18181 -3.49691e-07 8C-3.41744e-07 7.81819 0.0400712 7.63847 0.11755 7.47276C0.19503 7.30705 0.308145 7.15915 0.449384 7.03888C0.590624 6.91861 0.756756 6.82873 0.936744 6.77519C1.11673 6.72166 1.30646 6.7057 1.49333 6.72838L20.3299 6.72838L15.4756 2.16258C15.3214 1.8757 15.2644 1.5493 15.3128 1.22949C15.3612 0.909675 15.5125 0.612628 15.7453 0.380316C15.8687 0.259828 16.0157 0.164175 16.1777 0.0988938C16.3398 0.0336125 16.5136 -3.70953e-07 16.6892 -3.63278e-07C16.8647 -3.55604e-07 17.0386 0.0336125 17.2006 0.0988938C17.3626 0.164175 17.5096 0.259828 17.6331 0.380316L24.3752 6.74841C24.5678 6.8752 24.7253 7.04545 24.8342 7.24437C24.9431 7.4433 25 7.66488 25 7.88986C25 8.11484 24.9431 8.33642 24.8342 8.53535C24.7253 8.73427 24.5678 8.90452 24.3752 9.03131Z" fill="#FF7545"/>
</svg>
