<svg width="32" height="26" viewBox="0 0 32 26" fill="none" xmlns="http://www.w3.org/2000/svg">
<g clip-path="url(#clip0_1073_7769)">
<path d="M6.56134 14.3298H29.2564C30.1429 14.3298 31.0294 13.6206 31.0294 12.5567C31.0294 11.6702 30.3202 10.7837 29.2564 10.7837H7.44786L14.7174 3.51418C15.4266 2.80496 15.4266 1.74113 14.7174 1.03191C14.0081 0.322695 12.9443 0.322695 12.2351 1.03191L1.7741 11.4929C1.41949 11.8475 1.24219 12.3794 1.24219 12.9113C1.24219 13.4433 1.24219 13.9752 1.7741 14.3298L12.2351 24.7908C12.9443 25.5 14.0081 25.5 14.7174 24.7908C15.4266 24.0816 15.4266 23.0177 14.7174 22.3085L6.56134 14.3298Z" fill="black"/>
</g>
<defs>
<clipPath id="clip0_1073_7769">
<rect width="31.9092" height="25" fill="white" transform="translate(0 0.5)"/>
</clipPath>
</defs>
</svg>
