<svg width="16" height="7" viewBox="0 0 16 7" fill="none" xmlns="http://www.w3.org/2000/svg">
<path d="M0.353246 0.300999C0.564952 0.141084 0.847949 0.0464057 1.14708 0.0354175C1.44622 0.0244292 1.74005 0.097918 1.97133 0.241561L2.05729 0.300392L8.01703 4.79947L13.9366 0.270674C14.1471 0.109705 14.4294 0.0136896 14.7286 0.00135488C15.0277 -0.0109798 15.3222 0.0612504 15.5547 0.203958L15.6414 0.262182C15.8547 0.421065 15.9819 0.634211 15.9982 0.860048C16.0145 1.08589 15.9189 1.30822 15.7298 1.48369L15.6527 1.54858L8.8799 6.72937C8.66791 6.89149 8.38307 6.98766 8.08168 6.99889C7.78029 7.01012 7.48429 6.93559 7.25218 6.79002L7.17023 6.73362L0.353246 1.5874C0.241258 1.50291 0.15242 1.4026 0.0918086 1.29218C0.0311972 1.18177 0 1.06342 0 0.943897C0 0.824377 0.0311972 0.706027 0.0918086 0.595612C0.15242 0.485196 0.241258 0.384879 0.353246 0.300392V0.300999Z" fill="black"/>
</svg>
