<svg width="28" height="12" viewBox="0 0 28 12" fill="none" xmlns="http://www.w3.org/2000/svg">
<path d="M0.605441 0.496282C0.968292 0.232616 1.45333 0.076513 1.96603 0.0583958C2.47873 0.0402786 2.98234 0.161446 3.37873 0.398283L3.52607 0.495282L13.7407 7.91328L23.8865 0.446283C24.2472 0.18088 24.7311 0.0225712 25.2439 0.0022339C25.7566 -0.0181034 26.2614 0.100989 26.6598 0.336282L26.8085 0.432282C27.1739 0.694245 27.3919 1.04568 27.4199 1.41803C27.4479 1.79039 27.2839 2.15697 26.9599 2.44628L26.8278 2.55328L15.2196 11.0953C14.8563 11.3626 14.3681 11.5211 13.8515 11.5397C13.3349 11.5582 12.8276 11.4353 12.4298 11.1953L12.2893 11.1023L0.605441 2.61728C0.413501 2.47798 0.261239 2.31258 0.157354 2.13053C0.05347 1.94848 0 1.75335 0 1.55628C0 1.35922 0.05347 1.16409 0.157354 0.982035C0.261239 0.799984 0.413501 0.634582 0.605441 0.495282V0.496282Z" fill="#FF7545"/>
</svg>
