<svg width="20" height="21" viewBox="0 0 20 21" fill="none" xmlns="http://www.w3.org/2000/svg">
<path d="M13.1832 14.7059C13.3169 14.7077 13.4495 14.683 13.5735 14.6331C13.6975 14.5832 13.8103 14.5092 13.9055 14.4153C14.0006 14.3215 14.0762 14.2096 14.1277 14.0863C14.1793 13.963 14.2058 13.8307 14.2058 13.6971V1.5089C14.2058 1.37526 14.1793 1.24294 14.1277 1.11964C14.0762 0.996345 14.0006 0.884519 13.9055 0.79066C13.8103 0.696802 13.6975 0.622783 13.5735 0.572902C13.4495 0.523021 13.3169 0.498272 13.1832 0.500094H1.00881C0.741254 0.500094 0.484661 0.606378 0.295473 0.795566C0.106285 0.984754 0 1.24135 0 1.5089L0 13.6983C0 13.9659 0.106285 14.2225 0.295473 14.4117C0.484661 14.6009 0.741254 14.7071 1.00881 14.7071L13.1832 14.7059Z" fill="#FF7545"/>
<path d="M18.9787 6.29432H15.7398V15.1161C15.7398 15.4145 15.6213 15.7006 15.4103 15.9116C15.1993 16.1226 14.9131 16.2411 14.6147 16.2411H5.79297V19.4913C5.79296 19.625 5.81951 19.7573 5.87106 19.8806C5.92261 20.0039 5.99818 20.1157 6.09332 20.2096C6.18845 20.3034 6.30127 20.3774 6.42525 20.4273C6.54924 20.4772 6.68192 20.502 6.81556 20.5001H18.99C19.1224 20.5001 19.2536 20.474 19.376 20.4233C19.4984 20.3726 19.6096 20.2983 19.7033 20.2046C19.797 20.111 19.8713 19.9997 19.922 19.8773C19.9727 19.755 19.9988 19.6238 19.9988 19.4913V7.30188C19.9988 7.16823 19.9722 7.0359 19.9207 6.9126C19.8691 6.7893 19.7936 6.6775 19.6985 6.58364C19.6033 6.48979 19.4905 6.41577 19.3665 6.36589C19.2425 6.31601 19.1099 6.29124 18.9762 6.29306L18.9787 6.29432Z" fill="#FF7545"/>
</svg>
