<svg width="91" height="61" viewBox="0 0 91 61" fill="none" xmlns="http://www.w3.org/2000/svg">
<path d="M50.5419 38.4746C50.5421 38.8501 50.4687 39.2219 50.3259 39.5688C50.1831 39.9158 49.9737 40.2311 49.7097 40.4966C49.4457 40.7622 49.1322 40.9729 48.7872 41.1166C48.4422 41.2603 48.0724 41.3343 47.699 41.3343H6.94918C6.45007 41.3344 5.95974 41.2023 5.52748 40.9514C5.09522 40.7005 4.73627 40.3396 4.48671 39.905C4.23696 39.4705 4.10547 38.9776 4.10547 38.4757C4.10547 37.9739 4.23696 37.4809 4.48671 37.0465C4.73627 36.6118 5.09522 36.251 5.52748 36.0001C5.95974 35.7492 6.45007 35.6171 6.94918 35.6172H47.6978C48.0712 35.6172 48.4409 35.6911 48.7858 35.8348C49.1307 35.9784 49.4441 36.189 49.7081 36.4544C49.9721 36.7199 50.1815 37.035 50.3244 37.3818C50.4672 37.7286 50.5408 38.1004 50.5408 38.4757L50.5419 38.4746ZM87.0274 48.5745C87.027 49.3257 86.7301 50.0461 86.2019 50.5772C85.6736 51.1084 84.9572 51.407 84.2101 51.4073H50.2794C49.5419 51.3922 48.8398 51.087 48.3236 50.5573C47.8074 50.0276 47.5183 49.3156 47.5183 48.574C47.5183 47.8323 47.8074 47.1203 48.3236 46.5906C48.8398 46.0609 49.5419 45.7557 50.2794 45.7406H84.2089C84.9561 45.7409 85.6727 46.0395 86.2011 46.5706C86.7296 47.1017 87.0267 47.8221 87.0274 48.5734V48.5745Z" fill="#FFFBF8"/>
<path d="M58.5984 53.4559C58.5977 53.9994 58.3825 54.5204 58 54.9044C57.6174 55.2884 57.0989 55.5039 56.5584 55.5036H53.7656C53.4978 55.5036 53.2325 55.4506 52.9851 55.3476C52.7376 55.2446 52.5127 55.0935 52.3233 54.9031C52.1339 54.7127 51.9836 54.4866 51.8811 54.2378C51.7786 53.989 51.7258 53.7223 51.7258 53.453C51.7258 53.1836 51.7786 52.917 51.8811 52.6681C51.9836 52.4193 52.1339 52.1933 52.3233 52.0028C52.5127 51.8124 52.7376 51.6614 52.9851 51.5583C53.2325 51.4553 53.4978 51.4023 53.7656 51.4023H56.5584C57.0991 51.4027 57.6176 51.6187 58.0001 52.0031C58.3826 52.3874 58.5977 52.9087 58.5984 53.4524V53.4559ZM81.3441 57.5489C81.3441 57.8174 81.2915 58.0833 81.1892 58.3313C81.087 58.5793 80.9371 58.8046 80.7482 58.9944C80.5593 59.1841 80.335 59.3346 80.0882 59.4371C79.8414 59.5396 79.577 59.5922 79.31 59.5919H41.4381C40.8992 59.5919 40.3824 59.3767 40.0014 58.9935C39.6203 58.6104 39.4062 58.0908 39.4062 57.5489C39.4062 57.0071 39.6203 56.4875 40.0014 56.1043C40.3824 55.7212 40.8992 55.5059 41.4381 55.5059H79.31C79.5769 55.5058 79.8413 55.5585 80.088 55.6611C80.3348 55.7637 80.559 55.9141 80.7478 56.1038C80.9367 56.2935 81.0866 56.5188 81.1889 56.7668C81.2912 57.0147 81.344 57.2805 81.3441 57.5489ZM89.1633 57.5489C89.1633 58.0906 88.9494 58.61 88.5687 58.9931C88.1879 59.3762 87.6714 59.5916 87.1327 59.5919H85.5105C84.9716 59.5919 84.4548 59.3767 84.0738 58.9935C83.6927 58.6104 83.4787 58.0908 83.4787 57.5489C83.4787 57.0071 83.6927 56.4875 84.0738 56.1043C84.4548 55.7212 84.9716 55.5059 85.5105 55.5059H87.1327C87.6714 55.5062 88.1879 55.7216 88.5687 56.1047C88.9494 56.4878 89.1633 57.0073 89.1633 57.5489Z" fill="#FFFBF8"/>
<path d="M64.2375 3.29395H28.6542C28.6542 3.29395 25.9175 2.95013 25.7447 6.56204C25.572 10.1739 25.7447 48.0544 25.7447 52.9806C25.6875 57.0032 30.6463 57.8798 32.4167 55.5892C34.8127 52.6661 33.2722 49.2244 32.7599 49.0507C32.2475 48.877 66.1211 49.0507 66.1211 49.0507V7.93851C66.1211 7.93851 66.5879 3.28456 64.2375 3.29395Z" fill="white"/>
<path d="M29.6304 57.2779C28.4039 57.2779 27.2415 56.8085 26.4421 55.993C25.6811 55.2162 25.2867 54.1718 25.3042 52.9748C25.3042 51.873 25.296 49.1024 25.2844 45.4189C25.2447 32.8148 25.1676 9.35145 25.3042 6.54101C25.4337 3.81154 27.0233 2.83992 28.4669 2.83992C28.5484 2.83921 28.6298 2.84353 28.7108 2.85283H64.2393C64.5108 2.84744 64.7802 2.90166 65.0287 3.01171C65.2772 3.12175 65.4989 3.28498 65.6782 3.49001C66.8686 4.8125 66.5745 7.85529 66.5617 7.98085V49.4967H66.117C66.117 49.4967 51.0621 49.4193 41.1784 49.4193C36.6981 49.4193 34.5857 49.4357 33.6124 49.4533C33.7383 49.7181 33.8425 49.9928 33.924 50.2747C34.1997 51.2318 34.2374 52.2422 34.034 53.2174C33.8305 54.1925 33.392 55.1025 32.757 55.8674C32.0696 56.7581 30.9259 57.2756 29.6281 57.2756L29.6304 57.2779ZM28.4634 3.7294C27.8192 3.7294 26.3079 4.00868 26.1841 6.58326C26.0546 9.3714 26.1281 32.8195 26.1643 45.4142C26.176 49.0942 26.1841 51.8683 26.1841 52.9795C26.1701 53.9406 26.4759 54.7632 27.0676 55.3664C27.4067 55.697 27.8072 55.9573 28.2464 56.1323C28.6855 56.3072 29.1546 56.3935 29.6269 56.3861C30.6504 56.3861 31.5386 55.9965 32.0649 55.3147C32.5178 54.778 32.8562 54.1536 33.0594 53.48C33.2625 52.8064 33.326 52.0981 33.246 51.3989C33.1292 50.3099 32.7103 49.5624 32.5667 49.4498C32.4782 49.412 32.4052 49.3447 32.3602 49.2592C32.3151 49.1738 32.3007 49.0753 32.3193 48.9804C32.3473 48.8055 32.3637 48.6999 32.9028 48.6354C33.7396 48.5345 35.8345 48.5345 41.1807 48.5345C50.0631 48.5345 63.1212 48.5967 65.6782 48.6084V7.9386C65.7588 7.12422 65.7949 4.93924 65.02 4.08261C64.9243 3.97073 64.805 3.88179 64.6707 3.8223C64.5364 3.76281 64.3906 3.73427 64.2439 3.73879H28.6548C28.5929 3.73879 28.5381 3.73057 28.4669 3.73057L28.4634 3.7294Z" fill="#B1B1B1"/>
<path d="M30.3516 11.1211H61.653V19.7683H30.3516V11.1211ZM30.3516 22.7384H59.9794V24.6018H30.3516V22.7384ZM30.3516 27.343H46.004V29.2065H30.3516V27.343ZM30.3516 32.7222H56.1095V34.5856H30.3516V32.7222ZM30.3516 38.0696H49.3091V39.9331H30.3516V38.0696ZM76.4931 45.2136C77.2622 45.9858 77.4793 47.0396 76.9786 47.5676C76.478 48.0957 75.4498 47.8962 74.6831 47.1229L67.3073 39.7031C66.5406 38.9309 66.3223 37.876 66.8242 37.3491C67.326 36.8222 68.3518 37.0205 69.1174 37.7939L76.4931 45.2136Z" fill="#FFFBF8"/>
<path d="M76.231 48.081C75.6661 48.081 75.0289 47.7806 74.5294 47.276L67.1537 39.8562C66.2877 38.9855 66.0741 37.8144 66.667 37.1912C67.2307 36.5916 68.4491 36.8005 69.2765 37.6336L76.6511 45.0534C77.517 45.923 77.733 47.0929 77.1401 47.7172C77.0219 47.8382 76.8799 47.9332 76.7232 47.996C76.5664 48.0589 76.3984 48.0882 76.2298 48.0821L76.231 48.081ZM67.5761 37.271C67.4688 37.2669 67.3617 37.2848 67.2614 37.3235C67.1611 37.3622 67.0696 37.421 66.9926 37.4963C66.5795 37.9294 66.8 38.8658 67.4711 39.5417L74.8468 46.9615C75.2658 47.3828 75.7805 47.635 76.2356 47.635C76.3424 47.6379 76.4486 47.6193 76.548 47.5802C76.6474 47.5411 76.738 47.4823 76.8145 47.4074C77.2265 46.9732 77.0047 46.038 76.3337 45.3644L68.9591 37.9434C68.5401 37.521 68.0254 37.2687 67.5691 37.2687L67.5761 37.271Z" fill="#B1B1B1"/>
<path d="M66.6768 37.5525C66.1119 37.7227 66.8868 37.2216 66.6079 37.9187C66.5064 38.5183 66.7491 39.0182 67.1996 39.477L74.2019 46.641C74.9231 47.3814 76.3644 48.1325 76.718 47.6866C76.7542 47.6396 76.7951 47.5985 76.8347 47.5528L66.6768 37.5525Z" fill="#B1B1B1"/>
<path d="M67.9023 24.4743C66.4506 23.0148 64.6011 22.021 62.5877 21.6184C60.5743 21.2158 58.4873 21.4226 56.5908 22.2126C54.6942 23.0026 53.0732 24.3403 51.9328 26.0566C50.7923 27.7728 50.1836 29.7906 50.1836 31.8547C50.1836 33.9189 50.7923 35.9366 51.9328 37.6529C53.0732 39.3692 54.6942 40.7069 56.5908 41.4969C58.4873 42.2869 60.5743 42.4936 62.5877 42.0911C64.6011 41.6885 66.4506 40.6947 67.9023 39.2352C69.8475 37.277 70.9402 34.6224 70.9402 31.8547C70.9402 29.087 69.8475 26.4325 67.9023 24.4743Z" fill="white"/>
<path d="M60.565 42.7317C58.0626 42.7314 55.6377 41.8587 53.7036 40.2623C51.7694 38.6659 50.4455 36.4445 49.9576 33.9767C49.4697 31.5089 49.8479 28.9473 51.0277 26.7284C52.2075 24.5095 54.116 22.7706 56.428 21.8079C58.74 20.8453 61.3124 20.7185 63.707 21.4491C66.1015 22.1797 68.1701 23.7225 69.5601 25.8147C70.9502 27.9069 71.5757 30.419 71.3302 32.923C71.0848 35.427 69.9834 37.7679 68.2138 39.547C67.2109 40.5591 66.0185 41.3614 64.7054 41.9074C63.3924 42.4534 61.9847 42.7324 60.5638 42.7282L60.565 42.7317ZM60.565 21.8711C58.267 21.8729 56.0408 22.6758 54.2656 24.143C52.4904 25.6101 51.276 27.6508 50.8294 29.9173C50.3828 32.1838 50.7315 34.5359 51.8162 36.5728C52.9009 38.6098 54.6545 40.2055 56.7781 41.0882C58.9017 41.9709 61.264 42.086 63.4626 41.4137C65.6611 40.7415 67.5598 39.3236 68.8352 37.4015C70.1106 35.4795 70.6837 33.1723 70.457 30.873C70.2303 28.5738 69.2177 26.4246 67.5918 24.7919C66.6713 23.8626 65.5768 23.126 64.3715 22.6247C63.1662 22.1234 61.874 21.8673 60.5696 21.8711H60.565Z" fill="#B1B1B1"/>
<path d="M32.2649 48.7448C32.2649 48.7448 35.5198 54.9055 29.457 56.8335C36.2493 56.7725 68.5356 57.0036 68.5356 57.0036C68.5356 57.0036 71.1031 55.396 71.8034 53.6487C72.5036 51.9014 71.2899 49.4371 70.2629 48.7202C68.0198 48.5007 32.2591 48.746 32.2591 48.746L32.2649 48.7448Z" fill="#EEEEEE"/>
<path d="M68.5983 57.2268H68.5341C68.2832 57.2268 43.3119 57.0472 32.8423 57.0472C31.4418 57.0472 30.2946 57.0472 29.4929 57.0566H29.4812L29.1218 57.0167L29.0938 56.802L29.1054 56.5907H29.3365L29.4345 56.6013C31.0404 56.0815 32.1036 55.2037 32.5961 53.9962C33.539 51.681 32.0826 48.8717 32.0686 48.8436L31.897 48.5197H32.2611C32.4327 48.5197 49.4809 48.4023 60.6461 48.4023C66.4183 48.4023 69.6638 48.4329 70.2894 48.4939L70.3466 48.4997L70.3944 48.5326C71.5346 49.3282 72.7437 51.918 72.0131 53.7275C71.2825 55.537 68.7605 57.12 68.652 57.188L68.5983 57.2268ZM32.8423 56.6025C43.0493 56.6025 67.0368 56.7715 68.4723 56.782C68.8387 56.5473 70.9873 55.0899 71.6046 53.5656C72.2652 51.9227 71.0993 49.6216 70.1902 48.9363C69.4526 48.8799 66.2432 48.8518 60.6496 48.8518C50.3725 48.8518 35.1099 48.9503 32.6171 48.9691C32.9905 49.8105 33.8436 52.121 33.0104 54.1722C32.5856 55.2178 31.7873 56.0334 30.6296 56.6083H32.847L32.8423 56.6025Z" fill="#B1B1B1"/>
</svg>
