<svg width="30" height="30" viewBox="0 0 30 30" fill="none" xmlns="http://www.w3.org/2000/svg">
<path d="M18.2791 25.1237H23.948V27.3834H18.2791V25.1237ZM18.2791 21.3444H25.3116V23.6042H18.2791V21.3444ZM18.246 19.8444L18.2577 17.5847L26.7902 17.6276L26.7785 19.8873L18.246 19.8444ZM5.71419 25.1626L11.8116 18.1302C11.0518 17.9159 10.3506 17.5847 9.66873 17.1756L4.01938 23.7016C3.45445 24.3639 3.31808 25.299 3.66873 26.0977C4.01938 26.8964 4.83756 27.3834 5.71419 27.4029L16.0194 27.4613L16.0389 25.2211L5.71419 25.1626ZM14.4025 2.07821C10.2726 2.05873 6.92198 5.3899 6.9025 9.50029C6.88302 13.6107 10.2142 16.9808 14.3246 17.0003C15.3044 17.0054 16.2756 16.8175 17.1828 16.4473C18.0899 16.077 18.9153 15.5318 19.6117 14.8425C20.3082 14.1533 20.862 13.3337 21.2417 12.4305C21.6214 11.5272 21.8195 10.558 21.8246 9.57821C21.8297 8.59841 21.6418 7.6272 21.2715 6.72003C20.9013 5.81286 20.356 4.98749 19.6668 4.29105C18.9776 3.59461 18.158 3.04074 17.2547 2.66106C16.3515 2.28138 15.3823 2.08333 14.4025 2.07821ZM14.3246 14.76C13.639 14.7549 12.9611 14.6148 12.3296 14.3477C11.6981 14.0807 11.1255 13.6918 10.6443 13.2034C10.1631 12.715 9.78285 12.1366 9.52522 11.5012C9.26758 10.8658 9.13762 10.1859 9.14276 9.50029C9.15151 8.11677 9.70765 6.79298 10.6896 5.81833C11.6716 4.84367 12.9995 4.29742 14.383 4.29899C17.2661 4.31847 19.5843 6.65613 19.5843 9.53925C19.5756 10.9279 19.0174 12.2567 18.0318 13.235C17.0461 14.2133 15.7133 14.7616 14.3246 14.76Z" fill="black"/>
</svg>
