<svg width="26" height="26" viewBox="0 0 26 26" fill="none" xmlns="http://www.w3.org/2000/svg">
<path d="M22.62 22.541L18.343 18.277C19.981 16.379 20.878 13.987 20.878 11.452C20.878 8.657 19.786 6.044 17.823 4.068C15.86 2.092 13.234 1 10.452 1C7.657 1 5.044 2.092 3.068 4.055C1.092 6.031 0 8.657 0 11.452C0 14.247 1.092 16.86 3.055 18.836C5.031 20.812 7.657 21.891 10.439 21.891C12.74 21.891 14.937 21.15 16.744 19.785L21.06 24.101C21.268 24.309 21.554 24.426 21.84 24.426C22.126 24.426 22.399 24.322 22.62 24.101C23.049 23.672 23.049 22.97 22.62 22.541ZM2.197 11.452C2.197 6.902 5.902 3.21 10.439 3.21C14.989 3.21 18.681 6.915 18.681 11.452C18.681 16.002 14.989 19.694 10.439 19.694C5.889 19.694 2.197 15.989 2.197 11.452Z" fill="white"/>
</svg>
