<svg width="30" height="30" viewBox="0 0 30 30" fill="none" xmlns="http://www.w3.org/2000/svg">
<path d="M14.9921 3.8727C15.0438 3.8727 15.0929 3.88046 15.142 3.89597L23.6467 6.47323C23.8664 6.54044 24.0138 6.73949 24.0138 6.96697V17.9662C24.0138 19.0132 23.7243 20.0394 23.1788 20.9312C22.6334 21.8257 21.8527 22.5495 20.9221 23.0277L14.9921 26.0677L9.06463 23.0277C8.13402 22.5495 7.35334 21.8257 6.8079 20.9312C6.26247 20.0368 5.97294 19.0132 5.97294 17.9662V6.96697C5.97294 6.7369 6.12029 6.53786 6.34002 6.47323L14.8447 3.89597C14.8913 3.88046 14.943 3.8727 14.9921 3.8727ZM14.9921 1.80469C14.7387 1.80469 14.488 1.84088 14.2424 1.91584L5.73771 4.49311C4.64683 4.82399 3.90234 5.82698 3.90234 6.96697V17.9662C3.90234 20.8744 5.53091 23.5395 8.11851 24.8656L14.2864 28.0297C14.5087 28.1434 14.7517 28.2003 14.9947 28.2003C15.2376 28.2003 15.4806 28.1434 15.703 28.0297L21.8682 24.8682C24.4558 23.5421 26.0844 20.877 26.0844 17.9688V6.96697C26.0844 5.82698 25.3399 4.82399 24.249 4.49311L15.7443 1.91584C15.4987 1.84088 15.2454 1.80469 14.9921 1.80469Z" fill="black"/>
<path d="M14.0249 19.8096C13.7612 19.8096 13.495 19.7088 13.2933 19.5072L10.1138 16.3276C9.71051 15.9243 9.71051 15.2703 10.1138 14.8645C10.517 14.4586 11.171 14.4612 11.5769 14.8645L14.0249 17.3125L19.9627 11.3747C20.366 10.9714 21.02 10.9714 21.4258 11.3747C21.8317 11.7779 21.8291 12.432 21.4258 12.8378L14.7565 19.5072C14.5523 19.7088 14.2886 19.8096 14.0249 19.8096ZM24.5382 10.5449C24.4399 10.5449 24.3391 10.5294 24.2383 10.5009L15.4829 7.84613C15.1752 7.75307 14.8469 7.75307 14.5393 7.84613L5.78387 10.4984C5.23843 10.6638 4.65939 10.3562 4.49395 9.80816C4.3285 9.26014 4.63612 8.68368 5.18415 8.51824L13.9396 5.86601C14.6401 5.65404 15.382 5.65404 16.0826 5.86601L24.838 8.51824C25.3835 8.68368 25.6937 9.26014 25.5282 9.80816C25.3912 10.2554 24.9828 10.5449 24.5382 10.5449Z" fill="black"/>
</svg>
