<svg width="30" height="30" viewBox="0 0 30 30" fill="none" xmlns="http://www.w3.org/2000/svg">
<path d="M14.7186 27.5742C14.2899 27.5762 13.8744 27.4252 13.5471 27.1482L10.0791 24.1992L6.62912 26.6562C6.35845 26.8497 6.03967 26.9649 5.70781 26.9891C5.37595 27.0133 5.04383 26.9456 4.74794 26.7933C4.45205 26.6411 4.20383 26.4103 4.03054 26.1263C3.85725 25.8422 3.76559 25.5159 3.76563 25.1832V7.53266C3.76682 6.52255 4.16861 5.55415 4.88286 4.83989C5.59712 4.12564 6.56552 3.72385 7.57563 3.72266H21.8601C22.8704 3.72385 23.8389 4.12559 24.5534 4.8398C25.2679 5.55402 25.67 6.52241 25.6716 7.53266V25.1712C25.672 25.505 25.5801 25.8325 25.406 26.1174C25.232 26.4022 24.9825 26.6334 24.6853 26.7854C24.388 26.9374 24.0545 27.0042 23.7216 26.9785C23.3888 26.9527 23.0695 26.8355 22.7991 26.6397L19.4181 24.1977L15.8826 27.1482C15.5573 27.4235 15.1448 27.5744 14.7186 27.5742ZM10.0686 22.3962C10.5011 22.3932 10.9201 22.546 11.2491 22.8267L14.7171 25.7697L18.2526 22.8192C18.5614 22.5602 18.9478 22.4118 19.3505 22.3974C19.7532 22.3829 20.1492 22.5034 20.4756 22.7397L23.8491 25.1802H23.8566C23.8612 25.178 23.8652 25.1749 23.8686 25.1712V7.53266C23.8678 6.99956 23.6556 6.48854 23.2785 6.11172C22.9014 5.7349 22.3902 5.52305 21.8571 5.52266H7.57262C7.03966 5.52305 6.52864 5.73495 6.15178 6.11181C5.77492 6.48867 5.56302 6.99969 5.56263 7.53266V25.1832C5.56327 25.1864 5.56493 25.1893 5.56737 25.1914C5.5698 25.1936 5.57288 25.1949 5.57613 25.1952L9.02613 22.7337C9.33094 22.515 9.69647 22.397 10.0716 22.3962H10.0686Z" fill="black"/>
<path d="M18.6005 11.9719H10.8395C10.6008 11.9719 10.3718 11.8771 10.2031 11.7083C10.0343 11.5395 9.93945 11.3106 9.93945 11.0719C9.93945 10.8332 10.0343 10.6043 10.2031 10.4355C10.3718 10.2667 10.6008 10.1719 10.8395 10.1719H18.6005C18.8391 10.1719 19.0681 10.2667 19.2368 10.4355C19.4056 10.6043 19.5005 10.8332 19.5005 11.0719C19.5005 11.3106 19.4056 11.5395 19.2368 11.7083C19.0681 11.8771 18.8391 11.9719 18.6005 11.9719ZM18.6005 17.2999H10.8395C10.6008 17.2999 10.3718 17.2051 10.2031 17.0363C10.0343 16.8675 9.93945 16.6386 9.93945 16.3999C9.93945 16.1612 10.0343 15.9323 10.2031 15.7635C10.3718 15.5947 10.6008 15.4999 10.8395 15.4999H18.6005C18.8391 15.4999 19.0681 15.5947 19.2368 15.7635C19.4056 15.9323 19.5005 16.1612 19.5005 16.3999C19.5005 16.6386 19.4056 16.8675 19.2368 17.0363C19.0681 17.2051 18.8391 17.2999 18.6005 17.2999Z" fill="black"/>
</svg>
