<svg width="91" height="80" viewBox="0 0 91 80" fill="none" xmlns="http://www.w3.org/2000/svg">
<g clip-path="url(#clip0_1073_7950)">
<path d="M82.3933 0.0157617V39.5632C84.0611 40.4186 85.614 41.483 87.0149 42.7312V4.46834C87.0149 0.376934 82.3933 0.0157617 82.3933 0.0157617ZM73.8782 21.9403C73.8782 13.2089 65.0991 13.2958 65.0991 13.2958C56.4975 14.1118 56.5885 21.9358 56.5885 21.9403C56.5021 30.7654 65.0991 30.5803 65.0991 30.5803C74.6928 30.3929 73.8782 21.9403 73.8782 21.9403ZM58.8594 41.7072L56.5906 39.394L43.5517 52.5758L25.8025 30.5734L8.33311 56.8593L4.44422 56.9507L4.34622 4.47287H0V65.4923C0 65.4923 0.184333 69.9494 4.4373 69.9494H52.7997C50.3029 65.2863 49.5415 59.8823 50.6519 54.7064C51.7624 49.5304 54.6722 44.9211 58.8595 41.7049L58.8594 41.7072ZM4.4373 0.0157617C4.4373 0.0157617 0 -0.0756443 0 4.46834H82.3933V0.0157617H4.4373ZM67.5589 49.554C67.3332 49.7826 67.0647 49.9641 66.769 50.0881C66.4732 50.2122 66.156 50.2764 65.8355 50.277C65.515 50.2777 65.1975 50.2147 64.9013 50.0918C64.605 49.969 64.3359 49.7885 64.1092 49.5609L60.3455 45.7803C61.6038 44.6782 63.0017 43.7482 64.5029 43.0147L67.5635 46.0889C67.7905 46.3163 67.9705 46.5865 68.0932 46.884C68.216 47.1815 68.2789 47.5004 68.2785 47.8224C68.2781 48.1444 68.2143 48.4632 68.0908 48.7604C67.9673 49.0575 67.7866 49.3273 67.5589 49.554Z" fill="#BEBEBF"/>
<path d="M89.6057 52.4052C87.7639 47.9572 84.2445 44.422 79.8162 42.572C77.3791 41.5466 74.7521 41.056 72.111 41.1328C69.4699 41.2097 66.8756 41.8523 64.5017 43.0177C62.6798 43.9102 61.0126 45.091 59.5638 46.5149C56.9674 49.1188 55.2027 52.441 54.495 56.0572C53.7873 59.6733 54.1688 63.4193 55.5906 66.8166C57.4644 71.2949 61.0118 74.8565 65.4711 76.7366C68.8506 78.1761 72.582 78.5657 76.184 77.8552C79.7861 77.1447 83.0937 75.3666 85.6803 72.7503C87.3485 71.0371 88.6803 69.0232 89.6057 66.8144C90.5585 64.533 91.0492 62.0838 91.0492 59.6098C91.0492 57.1358 90.5585 54.6866 89.6057 52.4052ZM83.9168 61.692C83.3017 62.1799 82.5361 62.4363 81.7527 62.4166V62.2383H75.0807V68.6726C75.0967 69.4749 74.8077 70.2543 74.2684 70.8486C74.0095 71.1429 73.6895 71.3765 73.3309 71.5329C72.9723 71.6894 72.5839 71.7647 72.1931 71.7537C71.3511 71.7537 70.6912 71.452 70.2088 70.8486C69.7228 70.2301 69.4675 69.4603 69.4874 68.6726V62.236H63.6188C62.7768 62.236 62.0555 62.0235 61.4547 61.6006C60.854 61.1777 60.5536 60.5446 60.5513 59.6989C60.5543 58.8824 60.8784 58.1002 61.4529 57.5227C62.0275 56.9452 62.806 56.6191 63.6188 56.6155H69.4874V50.3662C69.4874 49.5206 69.7264 48.796 70.2088 48.1903C70.6889 47.5846 71.3511 47.2829 72.1931 47.2851C73.035 47.2851 73.7269 47.5869 74.2684 48.1903C74.806 48.7847 75.0967 49.5634 75.0807 50.3663V56.6155H81.7572C82.5712 56.6178 83.3512 56.9437 83.9268 57.5219C84.5024 58.1 84.8269 58.8835 84.8293 59.7012C84.8293 60.5469 84.5266 61.2098 83.9213 61.6943L83.9168 61.692Z" fill="#BEBEBF"/>
</g>
<defs>
<clipPath id="clip0_1073_7950">
<rect width="91" height="80" fill="white"/>
</clipPath>
</defs>
</svg>
