<svg width="30" height="30" viewBox="0 0 30 30" fill="none" xmlns="http://www.w3.org/2000/svg">
<path d="M15.1266 28.0992C14.543 28.0992 14.0016 27.8109 13.6781 27.3258L11.9625 24.7453C11.6602 24.2883 11.1117 24.0633 10.5703 24.1687L7.53281 24.7805C6.96328 24.893 6.37266 24.7172 5.95781 24.3094C5.54297 23.8945 5.36719 23.3109 5.48672 22.7344L6.09844 19.6969C6.20391 19.1555 5.97891 18.6141 5.52187 18.3047L2.94141 16.5891C2.45625 16.2656 2.16797 15.7242 2.16797 15.1406C2.16797 14.557 2.45625 14.0156 2.94141 13.6922L5.52187 11.9766C5.97891 11.6742 6.20391 11.1258 6.09844 10.5844L5.48672 7.54688C5.37422 6.97734 5.55 6.38672 5.95781 5.97891C6.37266 5.56406 6.95625 5.38828 7.53281 5.50781L10.5703 6.11953C11.1117 6.23203 11.6531 6 11.9625 5.54297L13.6781 2.97656C14.0016 2.49141 14.543 2.20312 15.1266 2.20312C15.7102 2.20312 16.2516 2.49141 16.575 2.97656L18.2906 5.55703C18.593 6.01406 19.1414 6.23906 19.6828 6.13359L22.7203 5.52187C23.2898 5.40937 23.8805 5.58516 24.2953 5.99297C24.7102 6.40078 24.8859 6.99141 24.7664 7.56094L24.1547 10.5984C24.0492 11.1398 24.2742 11.6812 24.7313 11.9906L27.3117 13.7062C27.7969 14.0297 28.0852 14.5711 28.0852 15.1547C28.0852 15.7383 27.7969 16.2797 27.3117 16.6031L24.7172 18.3047C24.2602 18.607 24.0352 19.1555 24.1406 19.6969L24.7523 22.7273C24.8648 23.2969 24.6891 23.8875 24.2812 24.3023C23.8664 24.7172 23.2828 24.893 22.7062 24.7734L19.6688 24.1617C19.1273 24.0562 18.5859 24.2812 18.2766 24.7383L16.5609 27.3188C16.2516 27.8039 15.7102 28.0992 15.1266 28.0992ZM10.8516 22.4531C11.857 22.4531 12.8063 22.9523 13.3758 23.8102L15.0914 26.3906C15.0984 26.3977 15.1055 26.4117 15.1336 26.4117C15.1617 26.4117 15.1688 26.3977 15.1758 26.3906L16.8914 23.8102C17.5805 22.7766 18.8039 22.2703 20.0203 22.5164L23.0578 23.1281C23.0648 23.1281 23.0859 23.1352 23.1 23.1141C23.1211 23.093 23.1141 23.0789 23.1141 23.0719L22.5023 20.0344C22.2563 18.818 22.7695 17.5875 23.7961 16.9055L26.3766 15.1898C26.3836 15.1828 26.3977 15.1758 26.3977 15.1477C26.3977 15.1195 26.3836 15.1125 26.3766 15.1055L23.7961 13.3898C22.7625 12.7008 22.2563 11.4773 22.5023 10.2609L23.1141 7.22344C23.1141 7.21641 23.1211 7.19531 23.1 7.18125C23.0789 7.16016 23.0648 7.16719 23.0578 7.16719L20.0203 7.77891C18.8039 8.025 17.5734 7.51172 16.8914 6.48516L15.1758 3.90469C15.1688 3.89766 15.1617 3.88359 15.1336 3.88359C15.1055 3.88359 15.0984 3.89766 15.0914 3.90469L13.3758 6.48516C12.6867 7.51875 11.4633 8.025 10.2469 7.77891L7.20937 7.16719C7.20234 7.16719 7.18125 7.16016 7.16719 7.18125C7.14609 7.20234 7.15312 7.21641 7.15312 7.22344L7.76484 10.2609C8.01094 11.4773 7.49766 12.7078 6.47109 13.3898L3.89062 15.1055C3.88359 15.1125 3.86953 15.1195 3.86953 15.1477C3.86953 15.1758 3.88359 15.1828 3.89062 15.1898L6.46406 16.8984C7.49766 17.5875 8.00391 18.8109 7.75781 20.0273L7.14609 23.0648C7.14609 23.0719 7.13906 23.093 7.16016 23.107C7.18125 23.1281 7.19531 23.1211 7.20234 23.1211L10.2398 22.5094C10.4438 22.4742 10.6477 22.4531 10.8516 22.4531Z" fill="#040000"/>
<path d="M14.0441 19.2522C13.8472 19.2522 13.6433 19.1819 13.4886 19.0412L9.69173 15.6873C9.34017 15.378 9.31204 14.8436 9.61439 14.4991C9.92376 14.1475 10.4581 14.1194 10.8027 14.4217L14.0019 17.2483L19.2472 11.9116C19.5706 11.5811 20.105 11.5741 20.4425 11.9045C20.773 12.228 20.78 12.7623 20.4495 13.0998L14.6417 19.0131C14.48 19.1678 14.262 19.2522 14.0441 19.2522Z" fill="#040000"/>
</svg>
